<svg width="28" height="26" viewBox="0 0 28 26" fill="none" xmlns="http://www.w3.org/2000/svg">
<rect x="7.71402" y="7.80298" width="11.5876" height="11.5876" fill="white"/>
<path d="M26.0361 10.2946C25.7962 9.92513 25.5954 9.53167 25.437 9.12061C25.317 8.67503 25.2428 8.21838 25.2156 7.75774C25.2034 6.80465 24.9341 5.87254 24.436 5.05989C23.8125 4.33148 23.0038 3.78506 22.0954 3.47839C21.6697 3.31306 21.2622 3.10418 20.8795 2.8551C20.5297 2.5688 20.2104 2.24707 19.9269 1.89503C19.3525 1.11718 18.5762 0.511381 17.6821 0.143293C16.7642 -0.0754064 15.8044 -0.0432748 14.9033 0.236322C14.4467 0.355154 13.9791 0.426851 13.5078 0.450289C13.0366 0.426923 12.569 0.355225 12.1124 0.236322C11.2111 -0.0424139 10.2516 -0.0745378 9.33362 0.143293C8.43988 0.512041 7.66373 1.11772 7.08883 1.89503C6.80458 2.24393 6.48538 2.56282 6.13621 2.84672C5.75386 3.09568 5.34669 3.30426 4.92125 3.46909C4.01227 3.77519 3.20312 4.32169 2.5797 5.05058C2.08211 5.86347 1.8128 6.79543 1.80012 7.74843C1.77323 8.20942 1.69904 8.66642 1.57871 9.11224C1.42078 9.52619 1.21998 9.92248 0.979598 10.2946C0.412718 11.0875 0.0739208 12.0206 0 12.9925C0.0730859 13.966 0.411922 14.9008 0.979598 15.695C1.21947 16.0645 1.42025 16.458 1.57871 16.869C1.69913 17.3145 1.77332 17.7712 1.80012 18.2319C1.81225 19.185 2.0816 20.1171 2.5797 20.9297C3.20318 21.6582 4.01188 22.2046 4.92032 22.5112C5.346 22.6766 5.75346 22.8854 6.13621 23.1345C6.48579 23.4194 6.80502 23.7395 7.08883 24.0899C7.66327 24.8679 8.43953 25.474 9.33362 25.8426C10.2514 26.0618 11.2113 26.0296 12.1124 25.7496C12.569 25.6308 13.0366 25.5591 13.5078 25.5356C13.9791 25.559 14.4467 25.6307 14.9033 25.7496C15.4731 25.8954 16.057 25.9793 16.6448 25.9998C16.9965 26.0033 17.3466 25.9512 17.6821 25.8454C18.5763 25.4756 19.3524 24.8686 19.9269 24.0899C20.2108 23.7411 20.5297 23.4222 20.8786 23.1383C21.2609 22.8893 21.6681 22.6807 22.0935 22.5159C23.0025 22.2098 23.8116 21.6633 24.4351 20.9344C24.9326 20.1215 25.202 19.1895 25.2146 18.2365C25.242 17.7756 25.3162 17.3187 25.4361 16.8727C25.5945 16.4617 25.7953 16.0682 26.0352 15.6987C26.6038 14.9035 26.943 13.9674 27.0157 12.9925C26.9418 12.0206 26.603 11.0875 26.0361 10.2946ZM18.764 10.9124L12.2519 16.4941C12.0829 16.6369 11.8685 16.7147 11.6473 16.7137H11.5691C11.4462 16.7033 11.3265 16.6686 11.2171 16.6116C11.1077 16.5546 11.0108 16.4764 10.9319 16.3815L8.14099 13.0325C7.98308 12.8428 7.90701 12.5981 7.92952 12.3522C7.95203 12.1064 8.07126 11.8796 8.26099 11.7217C8.45073 11.5638 8.69542 11.4877 8.94124 11.5102C9.18706 11.5327 9.41387 11.652 9.57178 11.8417L11.758 14.4661L17.5546 9.49831C17.6465 9.41341 17.7546 9.34791 17.8724 9.30574C17.9902 9.26358 18.1153 9.2456 18.2402 9.2529C18.3651 9.2602 18.4872 9.29262 18.5993 9.34822C18.7114 9.40382 18.8111 9.48146 18.8925 9.57649C18.9739 9.67152 19.0353 9.78199 19.073 9.9013C19.1107 10.0206 19.1239 10.1463 19.1119 10.2708C19.0999 10.3954 19.0629 10.5162 19.0031 10.6261C18.9434 10.736 18.862 10.8327 18.764 10.9105V10.9124Z" fill="#DC2626"/>
<path d="M26.0361 10.2946C25.7962 9.92513 25.5954 9.53167 25.437 9.12061C25.317 8.67503 25.2428 8.21838 25.2156 7.75774C25.2034 6.80465 24.9341 5.87254 24.436 5.05989C23.8125 4.33148 23.0038 3.78506 22.0954 3.47839C21.6697 3.31306 21.2622 3.10418 20.8795 2.8551C20.5297 2.5688 20.2104 2.24707 19.9269 1.89503C19.3525 1.11718 18.5762 0.511381 17.6821 0.143293C16.7642 -0.0754064 15.8044 -0.0432748 14.9033 0.236322C14.4467 0.355154 13.9791 0.426851 13.5078 0.450289C13.0366 0.426923 12.569 0.355225 12.1124 0.236322C11.2111 -0.0424139 10.2516 -0.0745378 9.33362 0.143293C8.43988 0.512041 7.66373 1.11772 7.08883 1.89503C6.80458 2.24393 6.48538 2.56282 6.13621 2.84672C5.75386 3.09568 5.34669 3.30426 4.92125 3.46909C4.01227 3.77519 3.20312 4.32169 2.5797 5.05058C2.08211 5.86347 1.8128 6.79543 1.80012 7.74843C1.77323 8.20942 1.69904 8.66642 1.57871 9.11224C1.42078 9.52619 1.21998 9.92248 0.979598 10.2946C0.412718 11.0875 0.0739208 12.0206 0 12.9925C0.0730859 13.966 0.411922 14.9008 0.979598 15.695C1.21947 16.0645 1.42025 16.458 1.57871 16.869C1.69913 17.3145 1.77332 17.7712 1.80012 18.2319C1.81225 19.185 2.0816 20.1171 2.5797 20.9297C3.20318 21.6582 4.01188 22.2046 4.92032 22.5112C5.346 22.6766 5.75346 22.8854 6.13621 23.1345C6.48579 23.4194 6.80502 23.7395 7.08883 24.0899C7.66327 24.8679 8.43953 25.474 9.33362 25.8426C10.2514 26.0618 11.2113 26.0296 12.1124 25.7496C12.569 25.6308 13.0366 25.5591 13.5078 25.5356C13.9791 25.559 14.4467 25.6307 14.9033 25.7496C15.4731 25.8954 16.057 25.9793 16.6448 25.9998C16.9965 26.0033 17.3466 25.9512 17.6821 25.8454C18.5763 25.4756 19.3524 24.8686 19.9269 24.0899C20.2108 23.7411 20.5297 23.4222 20.8786 23.1383C21.2609 22.8893 21.6681 22.6807 22.0935 22.5159C23.0025 22.2098 23.8116 21.6633 24.4351 20.9344C24.9326 20.1215 25.202 19.1895 25.2146 18.2365C25.242 17.7756 25.3162 17.3187 25.4361 16.8727C25.5945 16.4617 25.7953 16.0682 26.0352 15.6987C26.6038 14.9035 26.943 13.9674 27.0157 12.9925C26.9418 12.0206 26.603 11.0875 26.0361 10.2946ZM18.764 10.9124L12.2519 16.4941C12.0829 16.6369 11.8685 16.7147 11.6473 16.7137H11.5691C11.4462 16.7033 11.3265 16.6686 11.2171 16.6116C11.1077 16.5546 11.0108 16.4764 10.9319 16.3815L8.14099 13.0325C7.98308 12.8428 7.90701 12.5981 7.92952 12.3522C7.95203 12.1064 8.07126 11.8796 8.26099 11.7217C8.45073 11.5638 8.69542 11.4877 8.94124 11.5102C9.18706 11.5327 9.41387 11.652 9.57178 11.8417L11.758 14.4661L17.5546 9.49831C17.6465 9.41341 17.7546 9.34791 17.8724 9.30574C17.9902 9.26358 18.1153 9.2456 18.2402 9.2529C18.3651 9.2602 18.4872 9.29262 18.5993 9.34822C18.7114 9.40382 18.8111 9.48146 18.8925 9.57649C18.9739 9.67152 19.0353 9.78199 19.073 9.9013C19.1107 10.0206 19.1239 10.1463 19.1119 10.2708C19.0999 10.3954 19.0629 10.5162 19.0031 10.6261C18.9434 10.736 18.862 10.8327 18.764 10.9105V10.9124Z" fill="#DC2626"/>
</svg>
