<svg width="28" height="26" viewBox="0 0 28 26" fill="none" xmlns="http://www.w3.org/2000/svg">
<path d="M26.0361 10.2946C25.7962 9.92513 25.5954 9.53167 25.437 9.12061C25.317 8.67503 25.2428 8.21838 25.2156 7.75774C25.2034 6.80465 24.9341 5.87254 24.436 5.05989C23.8125 4.33148 23.0038 3.78506 22.0954 3.47839C21.6697 3.31306 21.2622 3.10418 20.8795 2.8551C20.5297 2.5688 20.2104 2.24707 19.9269 1.89503C19.3525 1.11718 18.5762 0.511381 17.6821 0.143293C16.7642 -0.0754064 15.8044 -0.0432748 14.9033 0.236322C14.4467 0.355154 13.9791 0.426851 13.5078 0.450289C13.0366 0.426923 12.569 0.355225 12.1124 0.236322C11.2111 -0.0424139 10.2516 -0.0745378 9.33362 0.143293C8.43988 0.512041 7.66373 1.11772 7.08883 1.89503C6.80458 2.24393 6.48538 2.56282 6.13621 2.84672C5.75386 3.09568 5.34669 3.30426 4.92125 3.46909C4.01227 3.77519 3.20312 4.32169 2.5797 5.05058C2.08211 5.86347 1.8128 6.79543 1.80012 7.74843C1.77323 8.20942 1.69904 8.66642 1.57871 9.11224C1.42078 9.52619 1.21998 9.92248 0.979598 10.2946C0.412718 11.0875 0.0739208 12.0206 0 12.9925C0.0730859 13.966 0.411922 14.9008 0.979598 15.695C1.21947 16.0645 1.42025 16.458 1.57871 16.869C1.69913 17.3145 1.77332 17.7712 1.80012 18.2319C1.81225 19.185 2.0816 20.1171 2.5797 20.9297C3.20318 21.6582 4.01188 22.2046 4.92032 22.5112C5.346 22.6766 5.75346 22.8854 6.13621 23.1345C6.48579 23.4194 6.80502 23.7395 7.08883 24.0899C7.66327 24.8679 8.43953 25.474 9.33362 25.8426C10.2514 26.0618 11.2113 26.0296 12.1124 25.7496C12.569 25.6308 13.0366 25.5591 13.5078 25.5356C13.9791 25.559 14.4467 25.6307 14.9033 25.7496C15.4731 25.8954 16.057 25.9793 16.6448 25.9998C16.9965 26.0033 17.3466 25.9512 17.6821 25.8454C18.5763 25.4756 19.3524 24.8686 19.9269 24.0899C20.2108 23.7411 20.5297 23.4222 20.8786 23.1383C21.2609 22.8893 21.6681 22.6807 22.0935 22.5159C23.0025 22.2098 23.8116 21.6633 24.4351 20.9344C24.9326 20.1215 25.202 19.1895 25.2146 18.2365C25.242 17.7756 25.3162 17.3187 25.4361 16.8727C25.5945 16.4617 25.7953 16.0682 26.0352 15.6987C26.6038 14.9035 26.943 13.9674 27.0157 12.9925C26.9418 12.0206 26.603 11.0875 26.0361 10.2946ZM18.764 10.9124L12.2519 16.4941C12.0829 16.6369 11.8685 16.7147 11.6473 16.7137H11.5691C11.4462 16.7033 11.3265 16.6686 11.2171 16.6116C11.1077 16.5546 11.0108 16.4764 10.9319 16.3815L8.14099 13.0325C7.98308 12.8428 7.90701 12.5981 7.92952 12.3522C7.95203 12.1064 8.07126 11.8796 8.26099 11.7217C8.45073 11.5638 8.69542 11.4877 8.94124 11.5102C9.18706 11.5327 9.41387 11.652 9.57178 11.8417L11.758 14.4661L17.5546 9.49831C17.6465 9.41341 17.7546 9.34791 17.8724 9.30574C17.9902 9.26358 18.1153 9.2456 18.2402 9.2529C18.3651 9.2602 18.4872 9.29262 18.5993 9.34822C18.7114 9.40382 18.8111 9.48146 18.8925 9.57649C18.9739 9.67152 19.0353 9.78199 19.073 9.9013C19.1107 10.0206 19.1239 10.1463 19.1119 10.2708C19.0999 10.3954 19.0629 10.5162 19.0031 10.6261C18.9434 10.736 18.862 10.8327 18.764 10.9105V10.9124Z" fill="#DC2626"/>
<path d="M26.0361 10.2946C25.7962 9.92513 25.5954 9.53167 25.437 9.12061C25.317 8.67503 25.2428 8.21838 25.2156 7.75774C25.2034 6.80465 24.9341 5.87254 24.436 5.05989C23.8125 4.33148 23.0038 3.78506 22.0954 3.47839C21.6697 3.31306 21.2622 3.10418 20.8795 2.8551C20.5297 2.5688 20.2104 2.24707 19.9269 1.89503C19.3525 1.11718 18.5762 0.511381 17.6821 0.143293C16.7642 -0.0754064 15.8044 -0.0432748 14.9033 0.236322C14.4467 0.355154 13.9791 0.426851 13.5078 0.450289C13.0366 0.426923 12.569 0.355225 12.1124 0.236322C11.2111 -0.0424139 10.2516 -0.0745378 9.33362 0.143293C8.43988 0.512041 7.66373 1.11772 7.08883 1.89503C6.80458 2.24393 6.48538 2.56282 6.13621 2.84672C5.75386 3.09568 5.34669 3.30426 4.92125 3.46909C4.01227 3.77519 3.20312 4.32169 2.5797 5.05058C2.08211 5.86347 1.8128 6.79543 1.80012 7.74843C1.77323 8.20942 1.69904 8.66642 1.57871 9.11224C1.42078 9.52619 1.21998 9.92248 0.979598 10.2946C0.412718 11.0875 0.0739208 12.0206 0 12.9925C0.0730859 13.966 0.411922 14.9008 0.979598 15.695C1.21947 16.0645 1.42025 16.458 1.57871 16.869C1.69913 17.3145 1.77332 17.7712 1.80012 18.2319C1.81225 19.185 2.0816 20.1171 2.5797 20.9297C3.20318 21.6582 4.01188 22.2046 4.92032 22.5112C5.346 22.6766 5.75346 22.8854 6.13621 23.1345C6.48579 23.4194 6.80502 23.7395 7.08883 24.0899C7.66327 24.8679 8.43953 25.474 9.33362 25.8426C10.2514 26.0618 11.2113 26.0296 12.1124 25.7496C12.569 25.6308 13.0366 25.5591 13.5078 25.5356C13.9791 25.559 14.4467 25.6307 14.9033 25.7496C15.4731 25.8954 16.057 25.9793 16.6448 25.9998C16.9965 26.0033 17.3466 25.9512 17.6821 25.8454C18.5763 25.4756 19.3524 24.8686 19.9269 24.0899C20.2108 23.7411 20.5297 23.4222 20.8786 23.1383C21.2609 22.8893 21.6681 22.6807 22.0935 22.5159C23.0025 22.2098 23.8116 21.6633 24.4351 20.9344C24.9326 20.1215 25.202 19.1895 25.2146 18.2365C25.242 17.7756 25.3162 17.3187 25.4361 16.8727C25.5945 16.4617 25.7953 16.0682 26.0352 15.6987C26.6038 14.9035 26.943 13.9674 27.0157 12.9925C26.9418 12.0206 26.603 11.0875 26.0361 10.2946ZM18.764 10.9124L12.2519 16.4941C12.0829 16.6369 11.8685 16.7147 11.6473 16.7137H11.5691C11.4462 16.7033 11.3265 16.6686 11.2171 16.6116C11.1077 16.5546 11.0108 16.4764 10.9319 16.3815L8.14099 13.0325C7.98308 12.8428 7.90701 12.5981 7.92952 12.3522C7.95203 12.1064 8.07126 11.8796 8.26099 11.7217C8.45073 11.5638 8.69542 11.4877 8.94124 11.5102C9.18706 11.5327 9.41387 11.652 9.57178 11.8417L11.758 14.4661L17.5546 9.49831C17.6465 9.41341 17.7546 9.34791 17.8724 9.30574C17.9902 9.26358 18.1153 9.2456 18.2402 9.2529C18.3651 9.2602 18.4872 9.29262 18.5993 9.34822C18.7114 9.40382 18.8111 9.48146 18.8925 9.57649C18.9739 9.67152 19.0353 9.78199 19.073 9.9013C19.1107 10.0206 19.1239 10.1463 19.1119 10.2708C19.0999 10.3954 19.0629 10.5162 19.0031 10.6261C18.9434 10.736 18.862 10.8327 18.764 10.9105V10.9124Z" fill="#DC2626"/>
<rect width="13.1383" height="14.3" transform="translate(7 6)" fill="#DC2626"/>
<path fill-rule="evenodd" clip-rule="evenodd" d="M13.5683 15.4477C16.165 15.4477 17.9343 17.0798 18.7911 19.3795C18.8296 19.4826 18.8425 19.5934 18.8288 19.7026C18.8151 19.8118 18.7752 19.916 18.7125 20.0065C18.6499 20.0969 18.5662 20.1708 18.4688 20.2219C18.3714 20.273 18.263 20.2998 18.153 20.3H8.98045C8.8707 20.2993 8.76274 20.2721 8.66573 20.2208C8.56872 20.1695 8.48552 20.0955 8.42321 20.0051C8.36089 19.9148 8.3213 19.8107 8.30778 19.7018C8.29426 19.5929 8.30722 19.4823 8.34556 19.3795C9.20568 17.0831 10.9749 15.4477 13.5683 15.4477ZM13.6516 6.05648L13.9911 7.03575C14.0041 7.07166 13.9911 7.05697 14.0351 7.05697H15.0144C15.0328 7.05643 15.0508 7.06187 15.0658 7.07247C15.0808 7.08306 15.092 7.09824 15.0976 7.11572C15.1036 7.13322 15.1038 7.15217 15.0982 7.16979C15.0927 7.18741 15.0816 7.20278 15.0666 7.21365L14.2702 7.78979C14.2552 7.80034 14.2441 7.81534 14.2382 7.83264C14.2323 7.84993 14.2321 7.86864 14.2375 7.88609L14.5476 8.81476C14.553 8.8322 14.5528 8.85091 14.5469 8.86821C14.5411 8.88551 14.5299 8.90051 14.515 8.91106C14.5004 8.92218 14.4827 8.9282 14.4644 8.9282C14.4461 8.9282 14.4283 8.92218 14.4138 8.91106L13.6189 8.33166C13.6044 8.32054 13.5866 8.31451 13.5683 8.31451C13.5501 8.31451 13.5323 8.32054 13.5177 8.33166L12.7229 8.90453C12.7084 8.91565 12.6906 8.92167 12.6723 8.92167C12.654 8.92167 12.6362 8.91565 12.6217 8.90453C12.6068 8.89398 12.5956 8.87898 12.5897 8.86168C12.5839 8.84439 12.5836 8.82568 12.5891 8.80823L12.8959 7.87303C12.9013 7.85559 12.9011 7.83688 12.8952 7.81958C12.8894 7.80228 12.8782 7.78728 12.8633 7.77673L12.0668 7.20712C12.0518 7.19626 12.0408 7.18088 12.0352 7.16326C12.0296 7.14564 12.0298 7.12669 12.0358 7.1092C12.0414 7.09171 12.0526 7.07653 12.0676 7.06594C12.0826 7.05534 12.1007 7.0499 12.119 7.05044H13.0983C13.1165 7.05026 13.1342 7.04432 13.1489 7.03348C13.1635 7.02263 13.1744 7.00743 13.1799 6.99005L13.4818 6.05485C13.4885 6.03863 13.4998 6.02475 13.5143 6.01499C13.5288 6.00522 13.5459 6 13.5634 6C13.581 6 13.5981 6.00522 13.6126 6.01499C13.6271 6.02475 13.6384 6.03863 13.6451 6.05485L13.6516 6.05648ZM20.0789 12.6486L19.1437 12.9506C19.1259 12.9559 19.1103 12.967 19.0994 12.982C19.0885 12.997 19.0828 13.0152 19.0833 13.0338V14.0131C19.0834 14.0316 19.0777 14.0497 19.0668 14.0646C19.0559 14.0796 19.0405 14.0907 19.0229 14.0963C19.0055 14.1017 18.9867 14.1015 18.9694 14.0956C18.9521 14.0898 18.9371 14.0786 18.9266 14.0637L18.3505 13.2672C18.3396 13.2522 18.3242 13.2412 18.3066 13.2356C18.289 13.23 18.27 13.2302 18.2525 13.2362L17.3222 13.5447C17.3048 13.5509 17.2857 13.5512 17.268 13.5456C17.2503 13.54 17.235 13.5288 17.2243 13.5136C17.2135 13.4987 17.2077 13.4807 17.2077 13.4622C17.2077 13.4438 17.2135 13.4258 17.2243 13.4108L17.8021 12.6176C17.8133 12.6028 17.8194 12.5848 17.8194 12.5662C17.8194 12.5476 17.8133 12.5296 17.8021 12.5148L17.2243 11.7216C17.2133 11.7068 17.2074 11.689 17.2072 11.6706C17.2071 11.6523 17.2128 11.6343 17.2235 11.6194C17.2342 11.6045 17.2494 11.5934 17.2669 11.5877C17.2843 11.582 17.3031 11.582 17.3206 11.5877L18.2542 11.8929C18.2716 11.8992 18.2907 11.8995 18.3084 11.8939C18.326 11.8883 18.3414 11.8771 18.3521 11.8619L18.9282 11.0655C18.9386 11.0504 18.9537 11.0393 18.9711 11.0336C18.9885 11.028 19.0073 11.0283 19.0245 11.0344C19.0422 11.0395 19.0577 11.0502 19.0686 11.065C19.0795 11.0797 19.0853 11.0977 19.0849 11.1161V12.0953C19.0845 12.1139 19.0902 12.1321 19.1011 12.1471C19.112 12.1622 19.1275 12.1732 19.1453 12.1786L20.0805 12.4805C20.0974 12.4864 20.112 12.4975 20.1224 12.5121C20.1328 12.5267 20.1383 12.5442 20.1383 12.5621C20.1383 12.58 20.1328 12.5975 20.1224 12.6121C20.112 12.6267 20.0974 12.6378 20.0805 12.6437L20.0789 12.6486ZM18.2297 8.02155L17.7825 8.90453C17.7738 8.92087 17.7707 8.9396 17.7736 8.95787C17.7766 8.97614 17.7854 8.99294 17.7988 9.00572L18.4941 9.69937C18.5075 9.71215 18.5163 9.72896 18.5192 9.74723C18.5222 9.76549 18.5191 9.78422 18.5104 9.80056C18.5018 9.81673 18.4884 9.82982 18.472 9.83801C18.4556 9.8462 18.4371 9.84909 18.419 9.84626L17.4495 9.69121C17.4314 9.68787 17.4127 9.69052 17.3962 9.69876C17.3797 9.70701 17.3663 9.7204 17.3581 9.73691L16.9142 10.6052C16.906 10.6217 16.8926 10.6351 16.8761 10.6433C16.8596 10.6516 16.8409 10.6542 16.8228 10.6509C16.8046 10.6485 16.7877 10.6402 16.7747 10.6272C16.7617 10.6142 16.7533 10.5973 16.751 10.5791L16.5992 9.60797C16.5962 9.58973 16.5875 9.57291 16.5743 9.55999C16.5611 9.54706 16.5441 9.53871 16.5257 9.53616L15.5465 9.38437C15.5285 9.3815 15.5118 9.37301 15.4989 9.36011C15.486 9.34722 15.4775 9.33057 15.4747 9.31256C15.472 9.29429 15.4751 9.27563 15.4836 9.25923C15.4921 9.24283 15.5055 9.22952 15.522 9.22116L16.3984 8.77722C16.415 8.76902 16.4283 8.75566 16.4366 8.73917C16.4448 8.72268 16.4475 8.70396 16.4441 8.68583L16.2809 7.71471C16.2774 7.69679 16.28 7.67821 16.2883 7.66194C16.2966 7.64566 16.3101 7.63264 16.3266 7.62495C16.3429 7.61632 16.3614 7.6131 16.3796 7.61574C16.3978 7.61838 16.4147 7.62675 16.4278 7.63964L17.1215 8.33655C17.1343 8.34993 17.1511 8.35877 17.1693 8.36171C17.1876 8.36466 17.2063 8.36156 17.2227 8.35287L18.0975 7.90404C18.1137 7.896 18.132 7.89325 18.1499 7.89618C18.1677 7.89911 18.1842 7.90757 18.197 7.92036C18.2104 7.93314 18.2193 7.94995 18.2222 7.96821C18.2251 7.98648 18.222 8.00521 18.2134 8.02155H18.2297ZM7.05781 12.4838L7.99302 12.1818C8.01081 12.1765 8.02635 12.1654 8.03725 12.1504C8.04816 12.1354 8.05384 12.1172 8.05341 12.0986V11.1193C8.05306 11.101 8.0588 11.083 8.06972 11.0682C8.08064 11.0535 8.09614 11.0427 8.11379 11.0377C8.13102 11.0316 8.14979 11.0313 8.16719 11.0369C8.1846 11.0425 8.19967 11.0537 8.21009 11.0687L8.78623 11.8652C8.79692 11.8804 8.81228 11.8916 8.82997 11.8972C8.84765 11.9028 8.86669 11.9025 8.88416 11.8962L9.81447 11.5877C9.83192 11.582 9.85073 11.582 9.86819 11.5877C9.88564 11.5934 9.90083 11.6045 9.91156 11.6194C9.92228 11.6343 9.92799 11.6523 9.92784 11.6706C9.9277 11.689 9.92172 11.7068 9.91076 11.7216L9.33299 12.5148C9.32174 12.5296 9.31564 12.5476 9.31564 12.5662C9.31564 12.5848 9.32174 12.6028 9.33299 12.6176L9.91076 13.4108C9.92152 13.4258 9.92731 13.4438 9.92731 13.4622C9.92731 13.4807 9.92152 13.4987 9.91076 13.5136C9.90007 13.5288 9.88471 13.54 9.86702 13.5456C9.84933 13.5512 9.8303 13.5509 9.81283 13.5447L8.87926 13.2394C8.86177 13.2335 8.84282 13.2333 8.82519 13.2388C8.80757 13.2444 8.7922 13.2555 8.78133 13.2705L8.20519 14.0669C8.19464 14.0818 8.17965 14.093 8.16235 14.0989C8.14505 14.1048 8.12634 14.105 8.1089 14.0996C8.09125 14.094 8.07586 14.0829 8.06499 14.0679C8.05412 14.0529 8.04834 14.0348 8.04851 14.0163V13.0371C8.04894 13.0185 8.04327 13.0003 8.03236 12.9853C8.02145 12.9702 8.00591 12.9592 7.98812 12.9538L7.05781 12.6486C7.04091 12.6427 7.02627 12.6316 7.01592 12.617C7.00556 12.6024 7 12.5849 7 12.567C7 12.5491 7.00556 12.5316 7.01592 12.517C7.02627 12.5024 7.04091 12.4913 7.05781 12.4854V12.4838ZM9.01636 7.90404L9.89117 8.35287C9.90751 8.36156 9.92624 8.36466 9.94451 8.36171C9.96278 8.35877 9.97958 8.34993 9.99237 8.33655L10.686 7.63964C10.6991 7.62675 10.716 7.61838 10.7342 7.61574C10.7524 7.6131 10.771 7.61632 10.7872 7.62495C10.8038 7.63264 10.8173 7.64566 10.8256 7.66194C10.8338 7.67821 10.8364 7.69679 10.8329 7.71471L10.6697 8.68583C10.6664 8.70396 10.669 8.72268 10.6772 8.73917C10.6855 8.75566 10.6989 8.76902 10.7154 8.77722L11.6098 9.22116C11.6263 9.22952 11.6397 9.24283 11.6482 9.25923C11.6567 9.27563 11.6598 9.29429 11.6571 9.31256C11.6543 9.33057 11.6458 9.34722 11.6329 9.36011C11.62 9.37301 11.6033 9.3815 11.5853 9.38437L10.6142 9.53616C10.5959 9.53871 10.5789 9.54706 10.5657 9.55999C10.5525 9.57291 10.5437 9.58973 10.5408 9.60797L10.389 10.5791C10.3866 10.5973 10.3783 10.6142 10.3653 10.6272C10.3523 10.6402 10.3354 10.6485 10.3172 10.6509C10.299 10.6542 10.2803 10.6516 10.2638 10.6433C10.2473 10.6351 10.234 10.6217 10.2258 10.6052L9.78182 9.72875C9.77362 9.71224 9.76026 9.69885 9.74377 9.6906C9.72728 9.68236 9.70855 9.67971 9.69042 9.68305L8.72094 9.8381C8.70285 9.84093 8.68433 9.83804 8.66795 9.82985C8.65157 9.82166 8.63814 9.80857 8.62954 9.7924C8.62086 9.77606 8.61776 9.75733 8.6207 9.73907C8.62365 9.7208 8.63249 9.70399 8.64587 9.69121L9.34115 8.99756C9.35453 8.98478 9.36336 8.96797 9.36631 8.94971C9.36926 8.93144 9.36615 8.91271 9.35747 8.89637L8.91027 8.02155C8.90159 8.00521 8.89848 7.98648 8.90143 7.96821C8.90438 7.94995 8.91321 7.93314 8.92659 7.92036C8.93939 7.90757 8.95588 7.89911 8.97374 7.89618C8.99161 7.89325 9.00993 7.896 9.02615 7.90404H9.01636ZM13.5683 9.96214C13.0519 9.96214 12.547 10.1153 12.1175 10.4022C11.6881 10.6892 11.3534 11.097 11.1557 11.5742C10.9581 12.0514 10.9064 12.5764 11.0071 13.083C11.1079 13.5896 11.3566 14.0549 11.7218 14.4201C12.087 14.7853 12.5523 15.034 13.0589 15.1348C13.5654 15.2355 14.0905 15.1838 14.5677 14.9862C15.0449 14.7885 15.4527 14.4538 15.7396 14.0244C16.0266 13.5949 16.1797 13.09 16.1797 12.5735C16.1797 11.881 15.9046 11.2167 15.4149 10.727C14.9251 10.2373 14.2609 9.96214 13.5683 9.96214Z" fill="white"/>
</svg>
