<svg width="28" height="26" viewBox="0 0 28 26" fill="none" xmlns="http://www.w3.org/2000/svg">
<path d="M26.0361 10.2946C25.7962 9.92513 25.5954 9.53167 25.437 9.12061C25.317 8.67503 25.2428 8.21838 25.2156 7.75774C25.2034 6.80465 24.9341 5.87254 24.436 5.05989C23.8125 4.33148 23.0038 3.78506 22.0954 3.47839C21.6697 3.31306 21.2622 3.10418 20.8795 2.8551C20.5297 2.5688 20.2104 2.24707 19.9269 1.89503C19.3525 1.11718 18.5762 0.511381 17.6821 0.143293C16.7642 -0.0754064 15.8044 -0.0432748 14.9033 0.236322C14.4467 0.355154 13.9791 0.426851 13.5078 0.450289C13.0366 0.426923 12.569 0.355225 12.1124 0.236322C11.2111 -0.0424139 10.2516 -0.0745378 9.33362 0.143293C8.43988 0.512041 7.66373 1.11772 7.08883 1.89503C6.80458 2.24393 6.48538 2.56282 6.13621 2.84672C5.75386 3.09568 5.34669 3.30426 4.92125 3.46909C4.01227 3.77519 3.20312 4.32169 2.5797 5.05058C2.08211 5.86347 1.8128 6.79543 1.80012 7.74843C1.77323 8.20942 1.69904 8.66642 1.57871 9.11224C1.42078 9.52619 1.21998 9.92248 0.979598 10.2946C0.412718 11.0875 0.0739208 12.0206 0 12.9925C0.0730859 13.966 0.411922 14.9008 0.979598 15.695C1.21947 16.0645 1.42025 16.458 1.57871 16.869C1.69913 17.3145 1.77332 17.7712 1.80012 18.2319C1.81225 19.185 2.0816 20.1171 2.5797 20.9297C3.20318 21.6582 4.01188 22.2046 4.92032 22.5112C5.346 22.6766 5.75346 22.8854 6.13621 23.1345C6.48579 23.4194 6.80502 23.7395 7.08883 24.0899C7.66327 24.8679 8.43953 25.474 9.33362 25.8426C10.2514 26.0618 11.2113 26.0296 12.1124 25.7496C12.569 25.6308 13.0366 25.5591 13.5078 25.5356C13.9791 25.559 14.4467 25.6307 14.9033 25.7496C15.4731 25.8954 16.057 25.9793 16.6448 25.9998C16.9965 26.0033 17.3466 25.9512 17.6821 25.8454C18.5763 25.4756 19.3524 24.8686 19.9269 24.0899C20.2108 23.7411 20.5297 23.4222 20.8786 23.1383C21.2609 22.8893 21.6681 22.6807 22.0935 22.5159C23.0025 22.2098 23.8116 21.6633 24.4351 20.9344C24.9326 20.1215 25.202 19.1895 25.2146 18.2365C25.242 17.7756 25.3162 17.3187 25.4361 16.8727C25.5945 16.4617 25.7953 16.0682 26.0352 15.6987C26.6038 14.9035 26.943 13.9674 27.0157 12.9925C26.9418 12.0206 26.603 11.0875 26.0361 10.2946ZM18.764 10.9124L12.2519 16.4941C12.0829 16.6369 11.8685 16.7147 11.6473 16.7137H11.5691C11.4462 16.7033 11.3265 16.6686 11.2171 16.6116C11.1077 16.5546 11.0108 16.4764 10.9319 16.3815L8.14099 13.0325C7.98308 12.8428 7.90701 12.5981 7.92952 12.3522C7.95203 12.1064 8.07126 11.8796 8.26099 11.7217C8.45073 11.5638 8.69542 11.4877 8.94124 11.5102C9.18706 11.5327 9.41387 11.652 9.57178 11.8417L11.758 14.4661L17.5546 9.49831C17.6465 9.41341 17.7546 9.34791 17.8724 9.30574C17.9902 9.26358 18.1153 9.2456 18.2402 9.2529C18.3651 9.2602 18.4872 9.29262 18.5993 9.34822C18.7114 9.40382 18.8111 9.48146 18.8925 9.57649C18.9739 9.67152 19.0353 9.78199 19.073 9.9013C19.1107 10.0206 19.1239 10.1463 19.1119 10.2708C19.0999 10.3954 19.0629 10.5162 19.0031 10.6261C18.9434 10.736 18.862 10.8327 18.764 10.9105V10.9124Z" fill="#DC2626"/>
<path d="M26.0361 10.2946C25.7962 9.92513 25.5954 9.53167 25.437 9.12061C25.317 8.67503 25.2428 8.21838 25.2156 7.75774C25.2034 6.80465 24.9341 5.87254 24.436 5.05989C23.8125 4.33148 23.0038 3.78506 22.0954 3.47839C21.6697 3.31306 21.2622 3.10418 20.8795 2.8551C20.5297 2.5688 20.2104 2.24707 19.9269 1.89503C19.3525 1.11718 18.5762 0.511381 17.6821 0.143293C16.7642 -0.0754064 15.8044 -0.0432748 14.9033 0.236322C14.4467 0.355154 13.9791 0.426851 13.5078 0.450289C13.0366 0.426923 12.569 0.355225 12.1124 0.236322C11.2111 -0.0424139 10.2516 -0.0745378 9.33362 0.143293C8.43988 0.512041 7.66373 1.11772 7.08883 1.89503C6.80458 2.24393 6.48538 2.56282 6.13621 2.84672C5.75386 3.09568 5.34669 3.30426 4.92125 3.46909C4.01227 3.77519 3.20312 4.32169 2.5797 5.05058C2.08211 5.86347 1.8128 6.79543 1.80012 7.74843C1.77323 8.20942 1.69904 8.66642 1.57871 9.11224C1.42078 9.52619 1.21998 9.92248 0.979598 10.2946C0.412718 11.0875 0.0739208 12.0206 0 12.9925C0.0730859 13.966 0.411922 14.9008 0.979598 15.695C1.21947 16.0645 1.42025 16.458 1.57871 16.869C1.69913 17.3145 1.77332 17.7712 1.80012 18.2319C1.81225 19.185 2.0816 20.1171 2.5797 20.9297C3.20318 21.6582 4.01188 22.2046 4.92032 22.5112C5.346 22.6766 5.75346 22.8854 6.13621 23.1345C6.48579 23.4194 6.80502 23.7395 7.08883 24.0899C7.66327 24.8679 8.43953 25.474 9.33362 25.8426C10.2514 26.0618 11.2113 26.0296 12.1124 25.7496C12.569 25.6308 13.0366 25.5591 13.5078 25.5356C13.9791 25.559 14.4467 25.6307 14.9033 25.7496C15.4731 25.8954 16.057 25.9793 16.6448 25.9998C16.9965 26.0033 17.3466 25.9512 17.6821 25.8454C18.5763 25.4756 19.3524 24.8686 19.9269 24.0899C20.2108 23.7411 20.5297 23.4222 20.8786 23.1383C21.2609 22.8893 21.6681 22.6807 22.0935 22.5159C23.0025 22.2098 23.8116 21.6633 24.4351 20.9344C24.9326 20.1215 25.202 19.1895 25.2146 18.2365C25.242 17.7756 25.3162 17.3187 25.4361 16.8727C25.5945 16.4617 25.7953 16.0682 26.0352 15.6987C26.6038 14.9035 26.943 13.9674 27.0157 12.9925C26.9418 12.0206 26.603 11.0875 26.0361 10.2946ZM18.764 10.9124L12.2519 16.4941C12.0829 16.6369 11.8685 16.7147 11.6473 16.7137H11.5691C11.4462 16.7033 11.3265 16.6686 11.2171 16.6116C11.1077 16.5546 11.0108 16.4764 10.9319 16.3815L8.14099 13.0325C7.98308 12.8428 7.90701 12.5981 7.92952 12.3522C7.95203 12.1064 8.07126 11.8796 8.26099 11.7217C8.45073 11.5638 8.69542 11.4877 8.94124 11.5102C9.18706 11.5327 9.41387 11.652 9.57178 11.8417L11.758 14.4661L17.5546 9.49831C17.6465 9.41341 17.7546 9.34791 17.8724 9.30574C17.9902 9.26358 18.1153 9.2456 18.2402 9.2529C18.3651 9.2602 18.4872 9.29262 18.5993 9.34822C18.7114 9.40382 18.8111 9.48146 18.8925 9.57649C18.9739 9.67152 19.0353 9.78199 19.073 9.9013C19.1107 10.0206 19.1239 10.1463 19.1119 10.2708C19.0999 10.3954 19.0629 10.5162 19.0031 10.6261C18.9434 10.736 18.862 10.8327 18.764 10.9105V10.9124Z" fill="#DC2626"/>
<rect width="13.1383" height="14.3" transform="translate(7 6)" fill="#DC2626"/>
<path fill-rule="evenodd" clip-rule="evenodd" d="M13.9432 9.63414L14.4281 11.095L16.008 11.0927C16.1515 11.0927 16.2782 11.1831 16.3228 11.3158C16.3662 11.4497 16.318 11.5953 16.2022 11.6775L14.9238 12.5793L15.4146 14.0414C15.4604 14.1788 15.4062 14.3303 15.2832 14.4101C15.1589 14.4912 14.9961 14.4818 14.8815 14.3878L13.626 13.4953L12.35 14.4019C12.2342 14.4841 12.0763 14.4841 11.9605 14.4019C11.8447 14.3197 11.7952 14.1753 11.8387 14.0414L12.3283 12.5793L11.0487 11.6775H11.0499C10.9293 11.5929 10.8823 11.4402 10.9329 11.304C10.9836 11.1678 11.1211 11.0821 11.2694 11.0915L12.8252 11.0938L13.31 9.6306V9.63178C13.3547 9.4979 13.4825 9.40748 13.6272 9.40865C13.7719 9.40865 13.8998 9.50027 13.9432 9.63414ZM13.8697 11.5177L13.6273 10.785L13.3836 11.5177C13.339 11.6516 13.2112 11.742 13.0665 11.742H12.2753L12.9169 12.193H12.9157C13.0327 12.2764 13.0809 12.4232 13.0363 12.557L12.789 13.291L13.4234 12.84V12.8389C13.5404 12.7531 13.702 12.752 13.8202 12.8353L14.4595 13.2898L14.217 12.5688C14.1664 12.4325 14.2134 12.2799 14.3352 12.1942L14.9768 11.7432H14.1989C14.0494 11.7503 13.9131 11.6587 13.8673 11.5189L13.8697 11.5177ZM13.626 7.67994C11.858 7.67994 10.2647 8.71686 9.58821 10.3069C8.91041 11.897 9.28429 13.7278 10.535 14.9456C11.7856 16.1634 13.666 16.5274 15.299 15.8686C16.932 15.2098 17.9969 13.6573 17.9969 11.9358C17.9969 9.58598 16.0405 7.67994 13.626 7.67994ZM16.2468 9.38507C15.1879 8.35401 13.5935 8.04517 12.209 8.60296C10.8245 9.16074 9.92231 10.4772 9.92231 11.9357C9.92231 13.3954 10.8244 14.7107 12.209 15.2685C13.5935 15.8275 15.1879 15.5186 16.2468 14.4864C17.6929 13.0783 17.6929 10.7944 16.2468 9.38507ZM15.6136 16.8325L16.1781 16.9758C16.4832 17.0521 16.7956 16.876 16.8776 16.58C16.9668 16.2524 17.0524 15.9236 17.1393 15.5948C17.1682 15.4797 17.2611 15.3881 17.3793 15.3587L18.3924 15.1027C18.6975 15.0241 18.8808 14.7223 18.8036 14.424C18.7168 14.0928 18.6275 13.7628 18.5395 13.434C18.5045 13.3213 18.5359 13.2003 18.6191 13.1158L19.409 12.3231C19.6225 12.107 19.6225 11.7653 19.409 11.5492L18.6191 10.7566V10.7554C18.5383 10.6744 18.5069 10.5581 18.5359 10.4489L18.7976 9.46718L18.8024 9.45074C18.8808 9.15363 18.6999 8.85066 18.396 8.77081C18.0595 8.68391 17.7218 8.60053 17.3841 8.51598V8.51481C17.2659 8.48662 17.1718 8.39737 17.1405 8.28229L16.8776 7.29587C16.798 6.99876 16.4868 6.82028 16.1817 6.89661L15.1661 7.15378H15.1649C15.0492 7.18667 14.9249 7.15731 14.8381 7.0751L14.024 6.30592C13.8021 6.09806 13.4511 6.09806 13.2292 6.30592L12.4152 7.0751L12.4139 7.07393C12.3307 7.15261 12.2113 7.18432 12.0992 7.15496L11.0909 6.90013L11.074 6.89543V6.8966C10.7689 6.8191 10.4565 6.99525 10.3745 7.29235C10.2853 7.61997 10.1997 7.9488 10.1128 8.2776V8.27642C10.0839 8.39268 9.991 8.48428 9.87281 8.51363L8.8585 8.76847C8.55458 8.84715 8.37127 9.15011 8.44966 9.44722L8.71378 10.436C8.74755 10.5488 8.7174 10.6709 8.63298 10.7543L7.84301 11.5469L7.84421 11.5481C7.63074 11.7642 7.63074 12.1059 7.84421 12.322L8.63418 13.1146H8.63298C8.71378 13.1957 8.74635 13.3119 8.71619 13.4211L8.44966 14.4216V14.4228C8.37126 14.7199 8.55458 15.0229 8.8585 15.1004L9.86796 15.3552C9.98736 15.3834 10.0814 15.4738 10.1116 15.5889L10.3745 16.5753C10.4541 16.8724 10.7653 17.0509 11.0704 16.9758L12.0871 16.7186C12.2029 16.6845 12.3283 16.7151 12.414 16.7961L13.228 17.5653H13.2292C13.4512 17.7732 13.8021 17.7732 14.024 17.5653L14.8381 16.7961C14.9213 16.7174 15.0407 16.6869 15.1529 16.7151L15.6136 16.8313L15.6136 16.8325ZM16.0816 17.617V17.6181C16.7256 17.7415 17.3564 17.3551 17.5228 16.7374L17.7363 15.9377L18.3924 15.7721L19.4416 18.5517L19.2185 18.9698L18.1922 18.4695C18.1102 18.4202 18.0089 18.4084 17.9172 18.4378C17.8243 18.466 17.7508 18.5329 17.7122 18.6198L17.0356 20.1499L16.0804 17.6181L16.0816 17.617ZM8.86083 15.7709L9.51692 15.9365L9.73281 16.7409C9.89924 17.3586 10.53 17.7426 11.1728 17.6182L10.2176 20.15L9.54104 18.6199V18.6187C9.50366 18.5318 9.42888 18.4649 9.33722 18.4367C9.24435 18.4073 9.14425 18.4191 9.06224 18.4684L7.56915 19.1953L8.86205 15.7697L8.86083 15.7709Z" fill="white"/>
</svg>
