<svg width="26" height="26" viewBox="0 0 26 26" fill="none" xmlns="http://www.w3.org/2000/svg">
<rect width="26" height="26" rx="13" fill="#F7F7F7"/>
<path fill-rule="evenodd" clip-rule="evenodd" d="M6.80238 16.0388L6.796 17.3219C6.79472 17.5796 6.84066 17.8214 6.93253 18.0454C7.02568 18.2719 7.16286 18.476 7.34341 18.6566C7.52395 18.8372 7.72877 18.9743 7.95462 19.0675C8.17856 19.1593 8.42037 19.2053 8.67812 19.204L9.96116 19.1976C10.12 19.1963 10.2661 19.2244 10.4001 19.2799C10.5322 19.3342 10.6547 19.4184 10.767 19.5326L11.6697 20.4443C11.8509 20.6274 12.0545 20.7665 12.2778 20.8596C12.5023 20.9534 12.7435 21 13 21C13.2565 21 13.4977 20.9528 13.7222 20.8596C13.9462 20.7665 14.1491 20.628 14.3303 20.4443L15.233 19.5326C15.3453 19.4197 15.4685 19.3348 15.5999 19.2799C15.7339 19.2244 15.8806 19.197 16.0388 19.1976L17.3219 19.204C17.5796 19.2053 17.8214 19.1593 18.0454 19.0675C18.2719 18.9743 18.476 18.8371 18.6566 18.6566C18.8372 18.476 18.9743 18.2712 19.0675 18.0454C19.1593 17.8214 19.2053 17.5796 19.204 17.3219L19.1976 16.0388C19.1963 15.88 19.2244 15.7339 19.2799 15.5999C19.3342 15.4678 19.4184 15.3453 19.5326 15.233L20.4443 14.3303C20.6274 14.1491 20.7665 13.9455 20.8596 13.7222C20.9534 13.4976 21 13.2565 21 13C21 12.7435 20.9528 12.5023 20.8596 12.2778C20.7665 12.0538 20.628 11.8509 20.4443 11.6697L19.5326 10.767C19.4197 10.6547 19.3348 10.5315 19.2799 10.4001C19.2244 10.2661 19.197 10.1194 19.1976 9.96116L19.204 8.67812C19.2053 8.42037 19.1593 8.17856 19.0675 7.95462C18.9743 7.72813 18.8371 7.52397 18.6566 7.3434C18.476 7.16284 18.2712 7.02568 18.0454 6.93253C17.8214 6.84066 17.5796 6.79472 17.3219 6.796L16.0388 6.80238C15.88 6.80365 15.7332 6.77558 15.5999 6.72007C15.4678 6.66584 15.3453 6.58162 15.233 6.46742L14.3303 5.55571C14.1491 5.3726 13.9455 5.23351 13.7222 5.14036C13.4977 5.04657 13.2565 5 13 5C12.7435 5 12.5023 5.04721 12.2778 5.14036C12.0538 5.23351 11.8509 5.37196 11.6697 5.55571L10.767 6.46742C10.6547 6.58035 10.5315 6.66519 10.4001 6.72007C10.2661 6.77558 10.1194 6.80301 9.96116 6.80238L8.67812 6.796C8.42037 6.79472 8.17856 6.84066 7.95462 6.93253C7.72813 7.02568 7.52397 7.16286 7.34341 7.3434C7.16284 7.52397 7.02568 7.72877 6.93253 7.95462C6.84066 8.17856 6.79472 8.42037 6.796 8.67812L6.80238 9.96116C6.80365 10.12 6.77558 10.2668 6.72007 10.4001C6.66584 10.5322 6.58163 10.6547 6.46742 10.767L5.55571 11.6697C5.3726 11.8509 5.23351 12.0545 5.14036 12.2778C5.04658 12.5023 5 12.7435 5 13C5 13.2565 5.04721 13.4976 5.14036 13.7222C5.23351 13.9462 5.37196 14.1491 5.55571 14.3303L6.46742 15.233C6.58035 15.3453 6.6652 15.4685 6.72007 15.5999C6.77558 15.7339 6.80302 15.8806 6.80238 16.0388ZM16.303 11.2263L12.2274 15.3019C12.0806 15.4486 11.8439 15.4486 11.6972 15.3019L9.69967 13.3044C9.55293 13.1576 9.55293 12.9209 9.69967 12.7742C9.84642 12.6274 10.0831 12.6274 10.2299 12.7742L11.9626 14.5069L15.7728 10.6968C15.9195 10.55 16.1562 10.55 16.303 10.6968C16.4497 10.8435 16.4497 11.0802 16.303 11.227L16.303 11.2263Z" fill="#DC2626"/>
</svg>
