<svg width="80" height="80" viewBox="0 0 80 80" fill="none" xmlns="http://www.w3.org/2000/svg">
<rect width="80" height="80" rx="4" fill="white" fill-opacity="0.02"/>
<path d="M40 44.625C42.5544 44.625 44.625 42.5544 44.625 40C44.625 37.4456 42.5544 35.375 40 35.375C37.4456 35.375 35.375 37.4456 35.375 40C35.375 42.5544 37.4456 44.625 40 44.625Z" stroke="#DC2626" stroke-width="2" stroke-miterlimit="10" stroke-linecap="round" stroke-linejoin="round"/>
<path d="M24.5859 41.3575V38.6441C24.5859 37.0408 25.8964 35.715 27.5151 35.715C30.3055 35.715 31.4464 33.7417 30.0434 31.3213C29.2418 29.9338 29.7197 28.13 31.1226 27.3284L33.7897 25.8021C35.0076 25.0775 36.5801 25.5092 37.3047 26.7271L37.4743 27.02C38.8618 29.4404 41.1434 29.4404 42.5464 27.02L42.7159 26.7271C43.4405 25.5092 45.013 25.0775 46.2309 25.8021L48.898 27.3284C50.3009 28.13 50.7789 29.9338 49.9772 31.3213C48.5743 33.7417 49.7151 35.715 52.5055 35.715C54.1089 35.715 55.4347 37.0254 55.4347 38.6441V41.3575C55.4347 42.9608 54.1243 44.2866 52.5055 44.2866C49.7151 44.2866 48.5743 46.26 49.9772 48.6804C50.7789 50.0833 50.3009 51.8716 48.898 52.6733L46.2309 54.1995C45.013 54.9241 43.4405 54.4925 42.7159 53.2745L42.5464 52.9816C41.1589 50.5612 38.8772 50.5612 37.4743 52.9816L37.3047 53.2745C36.5801 54.4925 35.0076 54.9241 33.7897 54.1995L31.1226 52.6733C29.7197 51.8716 29.2418 50.0679 30.0434 48.6804C31.4464 46.26 30.3055 44.2866 27.5151 44.2866C25.8964 44.2866 24.5859 42.9608 24.5859 41.3575Z" stroke="#DC2626" stroke-width="2" stroke-miterlimit="10" stroke-linecap="round" stroke-linejoin="round"/>
</svg>
