<svg width="83" height="68" viewBox="0 0 83 68" fill="none" xmlns="http://www.w3.org/2000/svg">
<path d="M77.2 34H5.2" stroke="white" stroke-width="6" stroke-linecap="round" stroke-linejoin="round"/>
<path d="M79.7996 55.6006C79.7995 58.1996 78.7672 60.6925 76.9295 62.5303C75.0917 64.3679 72.5988 65.4004 69.9998 65.4004H12.4002C9.80121 65.4004 7.30833 64.3679 5.4705 62.5303C3.63274 60.6925 2.60049 58.1996 2.60039 55.6006V34C2.60042 33.5959 2.69389 33.1972 2.8748 32.8359L15.2947 8.03223C16.1061 6.40248 17.3558 5.0308 18.9031 4.07129C20.4525 3.11054 22.2392 2.60161 24.0623 2.60059H58.3377C60.1608 2.60161 61.9475 3.11054 63.4969 4.07129C65.0441 5.03072 66.2929 6.40265 67.1043 8.03223H67.1053L79.5252 32.8359C79.7061 33.1972 79.7996 33.5959 79.7996 34V55.6006Z" stroke="white" stroke-width="5.2" stroke-linecap="round" stroke-linejoin="round"/>
<path d="M19.6 48.4004H19.636" stroke="white" stroke-width="7.2" stroke-linecap="round" stroke-linejoin="round"/>
<path d="M34 48.4004H34.036" stroke="white" stroke-width="7.2" stroke-linecap="round" stroke-linejoin="round"/>
</svg>
