<svg width="18" height="20" viewBox="0 0 18 20" fill="none" xmlns="http://www.w3.org/2000/svg">
<path fill-rule="evenodd" clip-rule="evenodd" d="M0 2C0 1.46957 0.210714 0.960859 0.585787 0.585786C0.960859 0.210714 1.46957 0 2 0L12.9427 0L17.3333 4.39067V18C17.3333 18.5304 17.1226 19.0391 16.7475 19.4142C16.3725 19.7893 15.8638 20 15.3333 20H2C1.46957 20 0.960859 19.7893 0.585787 19.4142C0.210714 19.0391 0 18.5304 0 18V2ZM4 5.33333H8V6.66667H4V5.33333ZM13.3333 9.33333H4V10.6667H13.3333V9.33333ZM13.3333 13.3333H9.33333V14.6667H13.3333V13.3333Z" fill="white"/>
</svg>
