<svg width="44" height="43" viewBox="0 0 44 43" fill="none" xmlns="http://www.w3.org/2000/svg">
<mask id="mask0_539_4291" style="mask-type:luminance" maskUnits="userSpaceOnUse" x="1" y="1" width="41" height="41">
<path d="M40.7916 17.9166H22V25.5312H32.8166C31.8083 30.3687 27.5916 33.1458 22 33.1458C15.4 33.1458 10.0833 27.95 10.0833 21.5C10.0833 15.05 15.4 9.85413 22 9.85413C24.8416 9.85413 27.4083 10.8395 29.425 12.452L35.2916 6.71871C31.7166 3.67288 27.1333 1.79163 22 1.79163C10.8166 1.79163 1.83331 10.5708 1.83331 21.5C1.83331 32.4291 10.8166 41.2083 22 41.2083C32.0833 41.2083 41.25 34.0416 41.25 21.5C41.25 20.3354 41.0666 19.0812 40.7916 17.9166Z" fill="white"/>
</mask>
<g mask="url(#mask0_539_4291)">
<path d="M0 33.1458V9.85413L15.5833 21.5L0 33.1458Z" fill="white"/>
</g>
<mask id="mask1_539_4291" style="mask-type:luminance" maskUnits="userSpaceOnUse" x="1" y="1" width="41" height="41">
<path d="M40.7916 17.9166H22V25.5312H32.8166C31.8083 30.3687 27.5916 33.1458 22 33.1458C15.4 33.1458 10.0833 27.95 10.0833 21.5C10.0833 15.05 15.4 9.85413 22 9.85413C24.8416 9.85413 27.4083 10.8395 29.425 12.452L35.2916 6.71871C31.7166 3.67288 27.1333 1.79163 22 1.79163C10.8166 1.79163 1.83331 10.5708 1.83331 21.5C1.83331 32.4291 10.8166 41.2083 22 41.2083C32.0833 41.2083 41.25 34.0416 41.25 21.5C41.25 20.3354 41.0666 19.0812 40.7916 17.9166Z" fill="white"/>
</mask>
<g mask="url(#mask1_539_4291)">
<path d="M0 9.85417L15.5833 21.5L22 16.0354L44 12.5417V0H0V9.85417Z" fill="white"/>
</g>
<mask id="mask2_539_4291" style="mask-type:luminance" maskUnits="userSpaceOnUse" x="1" y="1" width="41" height="41">
<path d="M40.7916 17.9166H22V25.5312H32.8166C31.8083 30.3687 27.5916 33.1458 22 33.1458C15.4 33.1458 10.0833 27.95 10.0833 21.5C10.0833 15.05 15.4 9.85413 22 9.85413C24.8416 9.85413 27.4083 10.8395 29.425 12.452L35.2916 6.71871C31.7166 3.67288 27.1333 1.79163 22 1.79163C10.8166 1.79163 1.83331 10.5708 1.83331 21.5C1.83331 32.4291 10.8166 41.2083 22 41.2083C32.0833 41.2083 41.25 34.0416 41.25 21.5C41.25 20.3354 41.0666 19.0812 40.7916 17.9166Z" fill="white"/>
</mask>
<g mask="url(#mask2_539_4291)">
<path d="M0 33.1458L27.5 12.5417L34.7417 13.4375L44 0V43H0V33.1458Z" fill="white"/>
</g>
<mask id="mask3_539_4291" style="mask-type:luminance" maskUnits="userSpaceOnUse" x="1" y="1" width="41" height="41">
<path d="M40.7916 17.9166H22V25.5312H32.8166C31.8083 30.3687 27.5916 33.1458 22 33.1458C15.4 33.1458 10.0833 27.95 10.0833 21.5C10.0833 15.05 15.4 9.85413 22 9.85413C24.8416 9.85413 27.4083 10.8395 29.425 12.452L35.2916 6.71871C31.7166 3.67288 27.1333 1.79163 22 1.79163C10.8166 1.79163 1.83331 10.5708 1.83331 21.5C1.83331 32.4291 10.8166 41.2083 22 41.2083C32.0833 41.2083 41.25 34.0416 41.25 21.5C41.25 20.3354 41.0666 19.0812 40.7916 17.9166Z" fill="white"/>
</mask>
<g mask="url(#mask3_539_4291)">
<path d="M44 43L15.5833 21.5L11.9166 18.8125L44 9.85413V43Z" fill="white"/>
</g>
</svg>
