<svg width="35" height="35" viewBox="0 0 35 35" fill="none" xmlns="http://www.w3.org/2000/svg">
<path d="M20.7522 8.42274C20.4468 8.73429 20.2758 9.15315 20.2758 9.5894C20.2758 10.0257 20.4468 10.4445 20.7522 10.7561L23.4189 13.4227C23.7304 13.7281 24.1493 13.8992 24.5855 13.8992C25.0218 13.8992 25.4407 13.7281 25.7522 13.4227L32.0355 7.1394C32.8736 8.99139 33.1273 11.0548 32.763 13.0546C32.3986 15.0545 31.4334 16.8958 29.996 18.3332C28.5586 19.7706 26.7173 20.7358 24.7174 21.1002C22.7176 21.4645 20.6542 21.2108 18.8022 20.3727L7.28553 31.8894C6.62249 32.5524 5.72322 32.9249 4.78553 32.9249C3.84785 32.9249 2.94857 32.5524 2.28553 31.8894C1.62249 31.2264 1.25 30.3271 1.25 29.3894C1.25 28.4517 1.62249 27.5524 2.28553 26.8894L13.8022 15.3727C12.9641 13.5208 12.7104 11.4573 13.0748 9.45749C13.4391 7.45764 14.4043 5.61633 15.8417 4.17894C17.2791 2.74155 19.1204 1.77635 21.1203 1.41197C23.1201 1.0476 25.1835 1.30134 27.0355 2.1394L20.7689 8.40607L20.7522 8.42274Z" stroke="white" stroke-width="2.5" stroke-linecap="round" stroke-linejoin="round"/>
</svg>
