<svg width="30" height="36" viewBox="0 0 30 36" fill="none" xmlns="http://www.w3.org/2000/svg">
<path d="M27.9167 19.5841C27.9167 27.9174 22.0833 32.0841 15.15 34.5008C14.7869 34.6238 14.3926 34.6179 14.0333 34.4841C7.08333 32.0841 1.25 27.9174 1.25 19.5841V7.91742C1.25 7.47539 1.4256 7.05147 1.73816 6.73891C2.05072 6.42634 2.47464 6.25075 2.91667 6.25075C6.25 6.25075 10.4167 4.25075 13.3167 1.71742C13.6698 1.41575 14.1189 1.25 14.5833 1.25C15.0477 1.25 15.4969 1.41575 15.85 1.71742C18.7667 4.26742 22.9167 6.25075 26.25 6.25075C26.692 6.25075 27.116 6.42634 27.4285 6.73891C27.7411 7.05147 27.9167 7.47539 27.9167 7.91742V19.5841Z" stroke="white" stroke-width="2.5" stroke-linecap="round" stroke-linejoin="round"/>
<path d="M9.58325 17.9173L12.9166 21.2507L19.5833 14.584" stroke="white" stroke-width="2.5" stroke-linecap="round" stroke-linejoin="round"/>
</svg>
