<svg width="32" height="29" viewBox="0 0 32 29" fill="none" xmlns="http://www.w3.org/2000/svg">
<path d="M15.5766 25.5029V12.7529" stroke="white" stroke-width="2.82" stroke-linecap="round" stroke-linejoin="round"/>
<path d="M2.82663 26.9196C2.82663 23.9446 5.23496 21.3946 8.20996 21.2529" stroke="white" stroke-width="2.82" stroke-linecap="round" stroke-linejoin="round"/>
<path d="M11.3267 7.27119V5.85452C11.301 5.28041 11.392 4.70705 11.594 4.16904C11.796 3.63103 12.1049 3.13952 12.502 2.72418C12.8992 2.30884 13.3764 1.97827 13.9049 1.75243C14.4333 1.52659 15.002 1.41016 15.5767 1.41016C16.1514 1.41016 16.7201 1.52659 17.2486 1.75243C17.777 1.97827 18.2542 2.30884 18.6514 2.72418C19.0486 3.13952 19.3575 3.63103 19.5595 4.16904C19.7615 4.70705 19.8524 5.28041 19.8267 5.85452V7.27119" stroke="white" stroke-width="2.82" stroke-linecap="round" stroke-linejoin="round"/>
<path d="M15.5766 25.5036C10.9016 25.5036 7.07663 21.6786 7.07663 17.0036V12.7536C7.07663 11.2507 7.67365 9.80935 8.73636 8.74664C9.79906 7.68394 11.2404 7.08691 12.7433 7.08691H18.41C19.9129 7.08691 21.3542 7.68394 22.4169 8.74664C23.4796 9.80935 24.0766 11.2507 24.0766 12.7536V17.0036C24.0766 21.6786 20.2516 25.5036 15.5766 25.5036Z" stroke="white" stroke-width="2.82" stroke-linecap="round" stroke-linejoin="round"/>
<path d="M7.82746 9.9196C5.0933 9.63626 2.82663 7.22793 2.82663 4.25293" stroke="white" stroke-width="2.82" stroke-linecap="round" stroke-linejoin="round"/>
<path d="M7.07667 15.5869H1.41" stroke="white" stroke-width="2.82" stroke-linecap="round" stroke-linejoin="round"/>
<path d="M28.2841 4.25293C28.2841 7.22793 26.0174 9.63626 23.3258 9.9196" stroke="white" stroke-width="2.82" stroke-linecap="round" stroke-linejoin="round"/>
<path d="M29.7433 15.5869H24.0766" stroke="white" stroke-width="2.82" stroke-linecap="round" stroke-linejoin="round"/>
<path d="M22.9432 21.2529C25.9182 21.3946 28.3265 23.9446 28.3265 26.9196" stroke="white" stroke-width="2.82" stroke-linecap="round" stroke-linejoin="round"/>
</svg>
