<svg width="29" height="32" viewBox="0 0 29 32" fill="none" xmlns="http://www.w3.org/2000/svg">
<path d="M14.4966 1.41016H13.8732C13.1218 1.41016 12.4011 1.70867 11.8698 2.24002C11.3384 2.77137 11.0399 3.49204 11.0399 4.24349V4.49849C11.0394 4.99535 10.9082 5.48334 10.6596 5.91351C10.4109 6.34368 10.0535 6.70089 9.62324 6.94932L9.01408 7.30349C8.58335 7.55217 8.09476 7.68308 7.59741 7.68308C7.10005 7.68308 6.61146 7.55217 6.18074 7.30349L5.96824 7.19016C5.31808 6.81511 4.54568 6.71337 3.82058 6.90726C3.09548 7.10115 2.47694 7.57483 2.10074 8.22432L1.78908 8.76266C1.41403 9.41281 1.31229 10.1852 1.50618 10.9103C1.70007 11.6354 2.17375 12.254 2.82324 12.6302L3.03574 12.7718C3.46397 13.019 3.82004 13.374 4.06856 13.8015C4.31709 14.229 4.44942 14.714 4.45241 15.2085V15.931C4.45439 16.4303 4.32441 16.9212 4.07564 17.354C3.82686 17.7869 3.46812 18.1464 3.03574 18.396L2.82324 18.5235C2.17375 18.8997 1.70007 19.5182 1.50618 20.2433C1.31229 20.9684 1.41403 21.7408 1.78908 22.391L2.10074 22.9293C2.47694 23.5788 3.09548 24.0525 3.82058 24.2464C4.54568 24.4403 5.31808 24.3385 5.96824 23.9635L6.18074 23.8502C6.61146 23.6015 7.10005 23.4706 7.59741 23.4706C8.09476 23.4706 8.58335 23.6015 9.01408 23.8502L9.62324 24.2043C10.0535 24.4528 10.4109 24.81 10.6596 25.2401C10.9082 25.6703 11.0394 26.1583 11.0399 26.6552V26.9102C11.0399 27.6616 11.3384 28.3823 11.8698 28.9136C12.4011 29.445 13.1218 29.7435 13.8732 29.7435H14.4966C15.248 29.7435 15.9687 29.445 16.5 28.9136C17.0314 28.3823 17.3299 27.6616 17.3299 26.9102V26.6552C17.3304 26.1583 17.4616 25.6703 17.7102 25.2401C17.9589 24.81 18.3163 24.4528 18.7466 24.2043L19.3557 23.8502C19.7865 23.6015 20.2751 23.4706 20.7724 23.4706C21.2698 23.4706 21.7584 23.6015 22.1891 23.8502L22.4016 23.9635C23.0517 24.3385 23.8241 24.4403 24.5492 24.2464C25.2743 24.0525 25.8929 23.5788 26.2691 22.9293L26.5807 22.3768C26.9558 21.7267 27.0575 20.9543 26.8636 20.2292C26.6697 19.5041 26.1961 18.8855 25.5466 18.5093L25.3341 18.396C24.9017 18.1464 24.543 17.7869 24.2942 17.354C24.0454 16.9212 23.9154 16.4303 23.9174 15.931V15.2227C23.9154 14.7234 24.0454 14.2325 24.2942 13.7996C24.543 13.3667 24.9017 13.0073 25.3341 12.7577L25.5466 12.6302C26.1961 12.254 26.6697 11.6354 26.8636 10.9103C27.0575 10.1852 26.9558 9.41281 26.5807 8.76266L26.2691 8.22432C25.8929 7.57483 25.2743 7.10115 24.5492 6.90726C23.8241 6.71337 23.0517 6.81511 22.4016 7.19016L22.1891 7.30349C21.7584 7.55217 21.2698 7.68308 20.7724 7.68308C20.2751 7.68308 19.7865 7.55217 19.3557 7.30349L18.7466 6.94932C18.3163 6.70089 17.9589 6.34368 17.7102 5.91351C17.4616 5.48334 17.3304 4.99535 17.3299 4.49849V4.24349C17.3299 3.49204 17.0314 2.77137 16.5 2.24002C15.9687 1.70867 15.248 1.41016 14.4966 1.41016Z" stroke="white" stroke-width="2.82" stroke-linecap="round" stroke-linejoin="round"/>
<path d="M14.1849 19.8271C16.5321 19.8271 18.4349 17.9244 18.4349 15.5771C18.4349 13.2299 16.5321 11.3271 14.1849 11.3271C11.8377 11.3271 9.93491 13.2299 9.93491 15.5771C9.93491 17.9244 11.8377 19.8271 14.1849 19.8271Z" stroke="white" stroke-width="2.82" stroke-linecap="round" stroke-linejoin="round"/>
</svg>
