<svg width="34" height="34" viewBox="0 0 34 34" fill="none" xmlns="http://www.w3.org/2000/svg">
<path d="M17 28.333H17.0142" stroke="white" stroke-width="2.82" stroke-linecap="round" stroke-linejoin="round"/>
<path d="M12.0417 23.2748C13.3657 21.977 15.1459 21.25 17 21.25C18.8541 21.25 20.6342 21.977 21.9583 23.2748" stroke="white" stroke-width="2.82" stroke-linecap="round" stroke-linejoin="round"/>
<path d="M7.08325 18.2171C9.09212 16.2478 11.6418 14.9212 14.4074 14.4062" stroke="white" stroke-width="2.82" stroke-linecap="round" stroke-linejoin="round"/>
<path d="M26.9165 18.2172C26.0635 17.381 25.1082 16.656 24.0732 16.0596" stroke="white" stroke-width="2.82" stroke-linecap="round" stroke-linejoin="round"/>
<path d="M2.83325 12.4942C4.5851 10.9275 6.58471 9.66227 8.75067 8.75" stroke="white" stroke-width="2.82" stroke-linecap="round" stroke-linejoin="round"/>
<path d="M31.1666 12.4958C29.0058 10.5632 26.4724 9.09318 23.7223 8.17616C20.9722 7.25913 18.0636 6.9145 15.1753 7.16348" stroke="white" stroke-width="2.82" stroke-linecap="round" stroke-linejoin="round"/>
<path d="M2.83325 2.83301L31.1666 31.1663" stroke="white" stroke-width="2.82" stroke-linecap="round" stroke-linejoin="round"/>
</svg>
