<svg width="16" height="32" viewBox="0 0 16 32" fill="none" xmlns="http://www.w3.org/2000/svg">
<path d="M10.625 4.2946V19.4596C11.7953 20.093 12.71 21.0708 13.2272 22.2413C13.7443 23.4118 13.835 24.7095 13.4853 25.9333C13.1355 27.157 12.3648 28.2384 11.2927 29.0096C10.2206 29.7809 8.90694 30.1989 7.55556 30.1989C6.20418 30.1989 4.89057 29.7809 3.81845 29.0096C2.74632 28.2384 1.97561 27.157 1.62585 25.9333C1.27609 24.7095 1.36682 23.4118 1.88397 22.2413C2.40112 21.0708 3.31579 20.093 4.48612 19.4596V4.2946C4.48612 3.53141 4.80951 2.79948 5.38514 2.25982C5.96077 1.72017 6.7415 1.41699 7.55556 1.41699C8.36963 1.41699 9.15035 1.72017 9.72599 2.25982C10.3016 2.79948 10.625 3.53141 10.625 4.2946Z" stroke="white" stroke-width="2.83333" stroke-linecap="round" stroke-linejoin="round"/>
</svg>
