<svg width="18" height="18" viewBox="0 0 18 18" fill="none" xmlns="http://www.w3.org/2000/svg">
<path d="M16.3599 11.555L12.3114 9.74084L12.3002 9.73569C12.0901 9.64579 11.8608 9.60972 11.6332 9.63072C11.4055 9.65173 11.1867 9.72916 10.9966 9.856C10.9742 9.87079 10.9527 9.88686 10.9321 9.90412L8.8404 11.6873C7.51524 11.0437 6.14712 9.68584 5.50345 8.37787L7.28923 6.25436C7.30641 6.23287 7.32274 6.21139 7.33821 6.18819C7.46233 5.99852 7.53763 5.78112 7.55742 5.55532C7.57722 5.32952 7.54088 5.10233 7.45165 4.89397V4.88365L5.63235 0.828263C5.51439 0.556069 5.31157 0.329323 5.05415 0.181875C4.79674 0.0344262 4.49854 -0.0258169 4.20407 0.0101386C3.03959 0.163371 1.97071 0.735252 1.19706 1.61897C0.423411 2.50269 -0.00209768 3.63781 7.77618e-06 4.81233C7.77618e-06 11.6358 5.55157 17.1873 12.375 17.1873C13.5495 17.1894 14.6846 16.7639 15.5684 15.9903C16.4521 15.2166 17.024 14.1477 17.1772 12.9833C17.2132 12.6889 17.1531 12.3908 17.0058 12.1334C16.8585 11.876 16.632 11.6731 16.3599 11.555ZM12.375 15.8123C9.4586 15.8091 6.66256 14.6492 4.60035 12.587C2.53814 10.5248 1.37819 7.72873 1.37501 4.81233C1.37177 3.97314 1.67411 3.16146 2.22556 2.52889C2.77701 1.89631 3.53986 1.48609 4.37165 1.37483C4.37131 1.37826 4.37131 1.38171 4.37165 1.38514L6.17634 5.4242L4.40001 7.55029C4.38198 7.57104 4.3656 7.59317 4.35102 7.61647C4.2217 7.81491 4.14583 8.0434 4.13078 8.27979C4.11572 8.51617 4.16198 8.75244 4.26509 8.96569C5.04368 10.5581 6.64813 12.1505 8.25774 12.9283C8.47255 13.0304 8.71019 13.0751 8.94743 13.0579C9.18466 13.0407 9.41339 12.9623 9.61126 12.8303C9.63332 12.8154 9.65455 12.7994 9.67485 12.7822L11.764 10.9998L15.8031 12.8088C15.8031 12.8088 15.8099 12.8088 15.8125 12.8088C15.7026 13.6418 15.293 14.4062 14.6603 14.959C14.0276 15.5118 13.2152 15.8152 12.375 15.8123Z" fill="white"/>
</svg>
