<svg width="110" height="116" viewBox="0 0 110 116" fill="none" xmlns="http://www.w3.org/2000/svg">
<path d="M30.25 99H93.5L110 115.5V57.75C110 51.7 105.05 46.75 99 46.75H30.25C24.2 46.75 19.25 51.7 19.25 57.75V88C19.25 94.05 24.2 99 30.25 99Z" fill="#AA1010"/>
<path d="M68.2 79.1996H58.3L56.375 84.9746H50.325L60.5 57.4746H65.725L75.9 84.9746H69.85L68.2 79.1996ZM59.675 74.7996H66.55L63.25 64.3496L59.675 74.7996Z" fill="white"/>
<path d="M79.75 57.75H16.5L0 74.25V11C0 4.95 4.95 1.28906e-07 11 0H79.75C85.8 0 90.75 4.95 90.75 11V46.75C90.75 52.8 85.8 57.75 79.75 57.75Z" fill="#DC2626"/>
<path d="M58.85 28.0496C58.85 30.7996 58.3 32.9996 57.475 34.9246C56.65 36.8496 55.55 38.4996 53.9 39.5996L58.575 43.1746L55 46.4746L48.95 41.7996C48.4 41.7996 47.575 42.0746 46.75 42.0746C45.1 42.0746 43.45 41.7996 41.8 41.2496C40.425 40.6996 39.05 39.5996 37.95 38.4996C36.85 37.3996 36.025 35.7496 35.475 34.0996C34.925 32.4496 34.65 30.5246 34.65 28.3246V27.2246C34.65 25.0246 34.925 23.0996 35.475 21.4496C36.025 19.7996 36.85 18.1496 37.95 17.0496C39.05 15.9496 40.15 14.8496 41.8 14.2996C43.175 13.7496 44.825 13.4746 46.75 13.4746C48.4 13.4746 50.05 13.7496 51.7 14.2996C53.075 14.8496 54.45 15.9496 55.55 17.0496C56.65 18.1496 57.475 19.7996 58.025 21.4496C58.575 23.0996 58.85 25.0246 58.85 27.2246V28.0496ZM52.8 26.6746C52.8 23.6496 52.25 21.4496 51.15 20.0746C50.05 18.4246 48.675 17.8746 46.75 17.8746C44.825 17.8746 43.175 18.6996 42.35 20.0746C41.25 21.7246 40.7 23.9246 40.7 26.6746V28.0496C40.7 29.4246 40.975 30.7996 41.25 31.8996C41.525 32.9996 41.8 34.0996 42.35 34.6496C42.9 35.4746 43.45 36.0246 44.275 36.2996C45.1 36.5746 45.925 36.8496 46.75 36.8496C48.675 36.8496 50.325 36.0246 51.15 34.6496C52.25 32.9996 52.8 30.7996 52.8 27.7746V26.6746Z" fill="white"/>
</svg>
