<svg width="41" height="39" viewBox="0 0 41 39" fill="none" xmlns="http://www.w3.org/2000/svg">
<path d="M33.0773 24.5877L27.5731 26.7908C27.4384 25.5304 26.7651 24.3892 25.7274 23.6623L19.6742 19.4271C18.476 18.5845 17.0481 18.1321 15.5823 18.1339H9.44602C9.19221 16.9132 8.11829 16.0378 6.87172 16.0361H2.62782C1.17753 16.0378 0.0017238 17.2136 0 18.6639V32.1723C0.00172645 33.6226 1.17753 34.7967 2.62782 34.7984H6.87172C8.09584 34.7967 9.15425 33.9506 9.42878 32.7576C15.508 33.5673 21.727 40.7879 28.1395 36.8876L36.6789 32.1308H36.6772C38.5816 31.0413 39.324 28.6673 38.3779 26.6871C37.4335 24.7084 35.1215 23.7918 33.0773 24.5877ZM6.73682 32.0363H2.76228V18.7989H6.73682V32.0363ZM35.3236 29.7244L26.7943 34.4759C23.9817 36.1403 21.0709 34.8713 18.4118 33.3623C15.6545 31.7376 12.6397 30.5929 9.49932 29.9783V20.8965H15.5821C16.4782 20.9 17.3536 21.1762 18.0874 21.689L24.1357 25.9191C24.4983 26.1729 24.7417 26.5631 24.8125 27.0016C24.8815 27.4384 24.7693 27.8839 24.5052 28.2378L24.5034 28.2413C24.4896 28.2465 24.5 28.243 24.5 28.243C23.9803 28.944 22.9996 29.108 22.2814 28.6108L17.6112 25.4166C16.981 25.004 16.1367 25.1715 15.7137 25.793C15.289 26.4146 15.4392 27.2606 16.0504 27.6974L20.7157 30.8881H20.7174C22.5338 32.1192 24.9803 31.8308 26.4616 30.2113L34.0981 27.1536L34.0998 27.1553C34.7956 26.8808 35.5864 27.1916 35.9092 27.8684C36.2321 28.5452 35.9762 29.355 35.3236 29.7244ZM40.8574 7.95772C40.5276 6.92697 39.635 6.17416 38.5628 6.02397L34.3241 5.37303L32.4525 1.58497C31.9743 0.612921 30.9867 0 29.9041 0C28.8233 0 27.834 0.612921 27.3557 1.58497L25.4254 5.41622L21.2455 6.02397C20.175 6.17936 19.2858 6.9287 18.9509 7.95772C18.6176 8.98673 18.8956 10.1159 19.6708 10.8704L22.7199 13.8901L22.0051 18.0563H22.0034C21.8221 19.1217 22.2607 20.199 23.136 20.8344C24.0114 21.4698 25.1716 21.5544 26.1281 21.0502L29.9404 19.0854L33.6801 21.0519C34.6384 21.5544 35.7986 21.4715 36.6739 20.8344C37.5493 20.199 37.9879 19.1199 37.8048 18.0546L37.1142 13.8211L40.1392 10.8721C40.9178 10.1194 41.1975 8.98678 40.8574 7.95772ZM35.1839 11.8425C34.5157 12.4969 34.2101 13.4361 34.3672 14.3581L35.082 18.5208L34.9664 18.6037L31.2266 16.6389V16.6406C30.3996 16.2038 29.4086 16.2038 28.5798 16.6389L24.8401 18.6054L25.4841 19.8278L24.7244 18.5208L25.4392 14.3564L25.4409 14.3581C25.598 13.4361 25.2924 12.4952 24.6225 11.8425L21.5993 8.89352L21.6425 8.75712L25.8207 8.14937C26.7479 8.01643 27.5491 7.43457 27.9634 6.59376L29.9041 2.76078V2.76251C29.9351 2.75733 29.9662 2.77632 29.9766 2.80567L31.8447 6.59202C32.2574 7.43283 33.0585 8.01645 33.9857 8.14936L38.1657 8.75711L38.2106 8.8935L35.1839 11.8425Z" fill="white"/>
</svg>
