<svg width="41" height="38" viewBox="0 0 41 38" fill="none" xmlns="http://www.w3.org/2000/svg">
<path d="M38.42 9.52235C37.1699 7.36767 35.5037 5.48163 33.5178 3.9734C31.5318 2.46517 29.2656 1.3647 26.8503 0.73569C26.7125 0.727587 26.5777 0.692131 26.4539 0.631398C23.7754 -0.0766501 20.9738 -0.190786 18.2463 0.297021C15.5189 0.784828 12.9317 1.86273 10.6669 3.45487C10.4813 3.58498 10.3233 3.75027 10.2017 3.94129C10.0802 4.13232 9.99762 4.34534 9.95865 4.5682C9.91969 4.79106 9.92512 5.0194 9.97465 5.24016C10.0242 5.46093 10.1168 5.6698 10.2473 5.85486C10.3778 6.03992 10.5435 6.19754 10.7351 6.31873C10.9267 6.43991 11.1403 6.52228 11.3638 6.56114C11.5873 6.59999 11.8163 6.59457 12.0377 6.54518C12.2591 6.49579 12.4685 6.40341 12.6541 6.2733C14.5074 4.97091 16.6243 4.08908 18.8559 3.68979C21.0876 3.29049 23.3798 3.38342 25.5716 3.96204C25.7095 3.96985 25.8443 4.00532 25.9681 4.06633C28.9083 4.83659 31.5575 6.44954 33.588 8.7056C35.6185 10.9617 36.9412 13.7619 37.3923 16.7597C37.8434 19.7576 37.4032 22.8215 36.1262 25.5725C34.8492 28.3235 32.7914 30.6408 30.2074 32.2376C27.6233 33.8345 24.6265 34.6409 21.5877 34.557C18.5488 34.4732 15.6013 33.5027 13.1098 31.7658C10.6183 30.0289 8.69215 27.6016 7.56966 24.7844C6.44717 21.9672 6.1776 18.8837 6.79431 15.9153L7.24376 16.7026C7.47068 17.099 7.84613 17.3894 8.28763 17.51C8.72914 17.6306 9.2006 17.5716 9.59845 17.3458C9.99631 17.12 10.288 16.746 10.4095 16.3059C10.531 15.8658 10.4724 15.3956 10.2465 14.9986L7.70132 10.54C7.58914 10.3434 7.43921 10.1708 7.2601 10.0319C7.08098 9.89311 6.8762 9.79082 6.65744 9.73091C6.43868 9.67101 6.21023 9.65466 5.98514 9.68281C5.76004 9.71095 5.54271 9.78304 5.34555 9.89494L0.874398 12.4325C0.677021 12.5442 0.503669 12.6937 0.364252 12.8723C0.224834 13.0509 0.122086 13.2552 0.0618784 13.4734C0.00167056 13.6917 -0.0148154 13.9196 0.0133626 14.1442C0.0415407 14.3688 0.113831 14.5856 0.2261 14.7823C0.33837 14.9791 0.488415 15.1518 0.667664 15.2906C0.846913 15.4295 1.05185 15.5318 1.27076 15.5916C1.48967 15.6514 1.71825 15.6677 1.94346 15.6394C2.16866 15.6111 2.38606 15.5388 2.58323 15.4267L3.45742 14.9306C2.78406 17.9411 2.85806 21.0701 3.67298 24.0457C4.4879 27.0213 6.0191 29.7535 8.13355 32.0049C10.248 34.2563 12.8818 35.9588 15.806 36.9646C18.7302 37.9704 21.8565 38.2489 24.9133 37.7761C27.97 37.3033 30.8648 36.0933 33.346 34.2514C35.8273 32.4095 37.82 29.9913 39.1511 27.2069C40.4821 24.4226 41.1113 21.3562 40.9839 18.2743C40.8565 15.1924 39.9763 12.188 38.42 9.52235Z" fill="white"/>
<path d="M22.0885 8.25049C21.6304 8.25051 21.1911 8.432 20.8671 8.75503C20.5432 9.07805 20.3612 9.51617 20.3611 9.973V19.0338C20.3614 19.1471 20.3728 19.2601 20.3953 19.3712C20.4054 19.4222 20.4245 19.4694 20.4391 19.5187C20.465 19.6393 20.5128 19.7542 20.5804 19.8576C20.6044 19.9014 20.6237 19.947 20.6519 19.989C20.7152 20.0839 20.7877 20.1722 20.8683 20.2528L25.0659 24.4386C25.39 24.7608 25.8291 24.9417 26.2868 24.9414C26.7444 24.941 27.1833 24.7596 27.5069 24.4369C27.8305 24.1142 28.0125 23.6766 28.0128 23.2202C28.0131 22.7638 27.8318 22.326 27.5086 22.0028L23.8159 18.3206V9.97302C23.8159 9.51618 23.6339 9.07807 23.31 8.75504C22.986 8.432 22.5467 8.25051 22.0885 8.25049Z" fill="white"/>
</svg>
