<svg width="38" height="39" viewBox="0 0 38 39" fill="none" xmlns="http://www.w3.org/2000/svg">
<path fill-rule="evenodd" clip-rule="evenodd" d="M18.9999 0.5C18.9138 0.499991 18.8286 0.516931 18.749 0.549852C18.6695 0.582773 18.5972 0.631031 18.5363 0.691869C18.4754 0.752708 18.4271 0.824935 18.3942 0.904428C18.3612 0.98392 18.3443 1.06912 18.3443 1.15516V4.37153C18.3443 4.45757 18.3612 4.54277 18.3942 4.62226C18.4272 4.70175 18.4754 4.77397 18.5363 4.83481C18.5972 4.89565 18.6695 4.9439 18.749 4.97682C18.8286 5.00974 18.9138 5.02668 18.9999 5.02667C19.1738 5.02667 19.3406 4.95765 19.4635 4.83478C19.5864 4.71192 19.6555 4.54529 19.6555 4.37153V1.15516C19.6555 0.981405 19.5865 0.814762 19.4635 0.691895C19.3406 0.569029 19.1738 0.500002 18.9999 0.5ZM9.3669 4.6878C9.31598 4.68935 9.26543 4.69683 9.21624 4.71008C9.10509 4.73987 9.00374 4.79837 8.92237 4.87971C8.8615 4.94054 8.8132 5.01277 8.78026 5.09226C8.74731 5.17175 8.73035 5.25695 8.73035 5.34299C8.73035 5.42903 8.74731 5.51422 8.78026 5.59371C8.8132 5.6732 8.8615 5.74543 8.92237 5.80627L11.1982 8.08057C11.2591 8.14142 11.3314 8.18968 11.4109 8.22261C11.4905 8.25554 11.5757 8.27248 11.6618 8.27248C11.7479 8.27248 11.8332 8.25554 11.9127 8.22261C11.9922 8.18968 12.0645 8.14142 12.1254 8.08057C12.1863 8.01973 12.2346 7.94751 12.2675 7.86802C12.3005 7.78853 12.3174 7.70333 12.3174 7.61729C12.3174 7.53125 12.3005 7.44605 12.2675 7.36657C12.2346 7.28708 12.1863 7.21485 12.1254 7.15401L9.84953 4.87971C9.78638 4.81659 9.711 4.76703 9.628 4.73407C9.545 4.70112 9.45617 4.6852 9.3669 4.6878ZM28.5949 4.68782C28.544 4.68938 28.4934 4.69686 28.4442 4.71011C28.3331 4.73988 28.2316 4.79838 28.1502 4.87973L25.8744 7.15404C25.8136 7.21487 25.7653 7.2871 25.7323 7.36659C25.6994 7.44608 25.6824 7.53128 25.6824 7.61732C25.6824 7.70336 25.6994 7.78855 25.7323 7.86804C25.7653 7.94753 25.8136 8.01976 25.8744 8.0806C25.9974 8.20346 26.1641 8.27248 26.338 8.27248C26.5119 8.27248 26.6786 8.20346 26.8016 8.0806L29.0775 5.80629C29.1383 5.74545 29.1866 5.67323 29.2196 5.59374C29.2525 5.51425 29.2695 5.42905 29.2695 5.34301C29.2695 5.25697 29.2525 5.17178 29.2196 5.09229C29.1866 5.0128 29.1383 4.94057 29.0775 4.87973C29.0143 4.81662 28.9389 4.76706 28.8559 4.7341C28.7729 4.70115 28.6842 4.68523 28.5949 4.68782ZM18.998 6.77752C18.8848 6.77757 18.7736 6.80691 18.6751 6.86268C18.5767 6.91846 18.4944 6.99878 18.4362 7.09582L16.2527 10.7277L12.1253 11.6839C12.015 11.7093 11.9132 11.7628 11.8297 11.8392C11.7462 11.9156 11.6839 12.0123 11.6489 12.12C11.6139 12.2276 11.6073 12.3425 11.6299 12.4534C11.6525 12.5643 11.7034 12.6675 11.7776 12.7529L14.5574 15.9516L14.191 20.1739C14.1811 20.2866 14.2005 20.3999 14.2474 20.5029C14.2943 20.6059 14.367 20.6949 14.4585 20.7615C14.55 20.828 14.6571 20.8697 14.7695 20.8826C14.8819 20.8954 14.9957 20.8789 15.0999 20.8348L19.0024 19.1796L22.9044 20.8315C23.0083 20.8755 23.1219 20.8919 23.2341 20.8791C23.3463 20.8663 23.4532 20.8247 23.5446 20.7584C23.636 20.6921 23.7087 20.6033 23.7557 20.5007C23.8027 20.398 23.8224 20.2849 23.8128 20.1724L23.4447 15.9492L26.2221 12.7491C26.2962 12.6637 26.3471 12.5606 26.3696 12.4497C26.3921 12.3389 26.3856 12.2241 26.3506 12.1165C26.3156 12.0089 26.2534 11.9122 26.1699 11.8358C26.0865 11.7594 25.9848 11.7059 25.8745 11.6805L21.7454 10.725L19.5598 7.09488C19.5015 6.998 19.4191 6.91787 19.3207 6.86226C19.2222 6.80665 19.111 6.77746 18.998 6.77752ZM18.9983 8.70486L20.7661 11.6403C20.8116 11.7154 20.8717 11.7806 20.9428 11.832C21.014 11.8834 21.0948 11.92 21.1803 11.9396L24.5175 12.7122L22.2723 15.3006C22.2149 15.3669 22.1713 15.4441 22.1442 15.5275C22.1172 15.611 22.1071 15.699 22.1147 15.7864L22.4113 19.2001L19.2579 17.8647C19.177 17.8303 19.0901 17.8125 19.0022 17.8124C18.9143 17.8123 18.8273 17.8299 18.7463 17.8641L15.5908 19.2016L15.8874 15.788C15.8948 15.7005 15.8844 15.6124 15.8571 15.5289C15.8297 15.4455 15.7859 15.3684 15.7281 15.3022L13.4819 12.7145L16.8191 11.9412C16.9048 11.9215 16.9857 11.8847 17.0568 11.8331C17.128 11.7815 17.1881 11.7162 17.2335 11.6409L18.9983 8.70486ZM13.0518 23.5073C12.8779 23.5074 12.7112 23.5764 12.5882 23.6993C12.4653 23.8221 12.3962 23.9888 12.3962 24.1625V27.2137H1.15558C0.981723 27.2138 0.814988 27.2828 0.692047 27.4056C0.569106 27.5285 0.500026 27.6951 0.5 27.8689V37.8448C0.50002 38.0186 0.569096 38.1852 0.692038 38.3081C0.81498 38.431 0.981719 38.5 1.15558 38.5H13.0519H24.9481H36.8444C37.0183 38.5 37.185 38.431 37.308 38.3081C37.4309 38.1852 37.5 38.0186 37.5 37.8448V30.1405C37.5 29.9668 37.4309 29.8001 37.308 29.6773C37.185 29.5544 37.0183 29.4854 36.8444 29.4854H25.6037V24.1625C25.6037 23.9888 25.5346 23.8221 25.4117 23.6993C25.2887 23.5764 25.122 23.5074 24.9481 23.5073H13.0518ZM13.7074 24.8176H24.2925V37.1896H13.7074V27.8689V24.8176ZM1.81117 28.524H12.3962V37.1896H1.81117V28.524ZM25.6037 30.7957H36.1888V37.1896H25.6037V30.7957Z" fill="white" stroke="white"/>
</svg>
