<svg width="42" height="52" viewBox="0 0 42 52" fill="none" xmlns="http://www.w3.org/2000/svg">
<path d="M18.9595 23.7215L13.5456 2.31745C13.1669 0.820101 11.8454 -0.339899 11.0094 0.0908819L2.13279 4.66573C1.29685 5.09651 1.47482 6.84588 2.47451 8.02307L16.765 24.8524C18.0409 26.3546 19.4429 25.6321 18.9595 23.7215L13.5456 2.31745C13.1669 0.820101 11.8454 -0.339899 11.0094 0.0908819L2.13279 4.66573C1.29685 5.09651 1.47482 6.84588 2.47451 8.02307L16.765 24.8524C18.0409 26.3546 19.4429 25.6321 18.9595 23.7215Z" fill="white"/>
<path d="M14.7418 29.9614L1.61839 27.0433C0.70026 26.8391 -0.133647 27.6267 0.0179155 28.555L1.62573 38.4106C1.77713 39.3387 2.81823 39.8205 3.62385 39.3353L15.1395 32.3978C16.1673 31.7784 15.9134 30.2217 14.7418 29.9614L1.61839 27.0433C0.70026 26.8391 -0.133647 27.6267 0.0179155 28.555L1.62573 38.4106C1.77713 39.3387 2.81823 39.8205 3.62385 39.3353L15.1395 32.3978C16.1673 31.7784 15.9134 30.2217 14.7418 29.9614Z" fill="white"/>
<path d="M18.7741 36.0002L11.9434 47.5797C11.4655 48.3899 11.957 49.4263 12.8866 49.5691L22.7569 51.0857C23.6864 51.2285 24.4662 50.3872 24.2537 49.4713L21.2142 36.3754C20.9427 35.2061 19.3836 34.9665 18.7741 36.0002L11.9434 47.5797C11.4655 48.3899 11.957 49.4263 12.8866 49.5691L22.7569 51.0857C23.6864 51.2285 24.4662 50.3872 24.2537 49.4713L21.2142 36.3754C20.9427 35.2061 19.3836 34.9665 18.7741 36.0002Z" fill="white"/>
<path d="M25.7664 34.0298L34.6683 44.1043C35.2911 44.809 36.4286 44.6621 36.8517 43.8221L41.3441 34.9037C41.7672 34.0637 41.2081 33.0621 40.2713 32.9812L26.877 31.8249C25.6813 31.7218 24.9717 33.1306 25.7664 34.0298L34.6683 44.1043C35.2911 44.809 36.4286 44.6621 36.8517 43.8221L41.3441 34.9037C41.7672 34.0637 41.2081 33.0621 40.2713 32.9812L26.877 31.8249C25.6813 31.7218 24.9717 33.1306 25.7664 34.0298Z" fill="white"/>
<path d="M26.0503 26.7734L38.3826 21.4204C39.2454 21.046 39.457 19.9185 38.7889 19.2567L31.6951 12.2284C31.027 11.5665 29.9015 11.7885 29.5351 12.6548L24.2965 25.0362C23.829 26.1412 24.9494 27.2512 26.0503 26.7734L38.3826 21.4204C39.2454 21.046 39.457 19.9185 38.7889 19.2567L31.6951 12.2284C31.027 11.5665 29.9015 11.7885 29.5351 12.6548L24.2965 25.0362C23.829 26.1412 24.9494 27.2512 26.0503 26.7734Z" fill="white"/>
</svg>
