<svg width="272" height="89" viewBox="0 0 272 89" fill="none" xmlns="http://www.w3.org/2000/svg">
<rect x="1" y="1" width="269.28" height="86.4" rx="8.64" fill="#14163B" fill-opacity="0.5"/>
<rect x="0.5" y="0.5" width="270.28" height="87.4" rx="9.14" stroke="white" stroke-opacity="0.13"/>
<rect x="11.6592" y="11.96" width="69.2004" height="66.24" rx="8.64" fill="white"/>
<mask id="mask0_539_341" style="mask-type:luminance" maskUnits="userSpaceOnUse" x="21" y="21" width="49" height="48">
<path d="M69.0144 40.76H46.2594V49.94H59.3574C58.1364 55.772 53.0304 59.12 46.2594 59.12C38.2674 59.12 31.8294 52.856 31.8294 45.08C31.8294 37.304 38.2674 31.04 46.2594 31.04C49.7004 31.04 52.8084 32.228 55.2504 34.172L62.3544 27.26C58.0254 23.588 52.4754 21.32 46.2594 21.32C32.7174 21.32 21.8394 31.904 21.8394 45.08C21.8394 58.256 32.7174 68.84 46.2594 68.84C58.4694 68.84 69.5694 60.2 69.5694 45.08C69.5694 43.676 69.3474 42.164 69.0144 40.76Z" fill="white"/>
</mask>
<g mask="url(#mask0_539_341)">
<path d="M19.6194 59.12V31.04L38.4894 45.08L19.6194 59.12Z" fill="#FBBC05"/>
</g>
<mask id="mask1_539_341" style="mask-type:luminance" maskUnits="userSpaceOnUse" x="21" y="21" width="49" height="48">
<path d="M69.0144 40.76H46.2594V49.94H59.3574C58.1364 55.772 53.0304 59.12 46.2594 59.12C38.2674 59.12 31.8294 52.856 31.8294 45.08C31.8294 37.304 38.2674 31.04 46.2594 31.04C49.7004 31.04 52.8084 32.228 55.2504 34.172L62.3544 27.26C58.0254 23.588 52.4754 21.32 46.2594 21.32C32.7174 21.32 21.8394 31.904 21.8394 45.08C21.8394 58.256 32.7174 68.84 46.2594 68.84C58.4694 68.84 69.5694 60.2 69.5694 45.08C69.5694 43.676 69.3474 42.164 69.0144 40.76Z" fill="white"/>
</mask>
<g mask="url(#mask1_539_341)">
<path d="M19.6194 31.04L38.4894 45.08L46.2594 38.492L72.8994 34.28V19.16H19.6194V31.04Z" fill="#EA4335"/>
</g>
<mask id="mask2_539_341" style="mask-type:luminance" maskUnits="userSpaceOnUse" x="21" y="21" width="49" height="48">
<path d="M69.0144 40.76H46.2594V49.94H59.3574C58.1364 55.772 53.0304 59.12 46.2594 59.12C38.2674 59.12 31.8294 52.856 31.8294 45.08C31.8294 37.304 38.2674 31.04 46.2594 31.04C49.7004 31.04 52.8084 32.228 55.2504 34.172L62.3544 27.26C58.0254 23.588 52.4754 21.32 46.2594 21.32C32.7174 21.32 21.8394 31.904 21.8394 45.08C21.8394 58.256 32.7174 68.84 46.2594 68.84C58.4694 68.84 69.5694 60.2 69.5694 45.08C69.5694 43.676 69.3474 42.164 69.0144 40.76Z" fill="white"/>
</mask>
<g mask="url(#mask2_539_341)">
<path d="M19.6194 59.12L52.9194 34.28L61.6884 35.36L72.8994 19.16V71H19.6194V59.12Z" fill="#34A853"/>
</g>
<mask id="mask3_539_341" style="mask-type:luminance" maskUnits="userSpaceOnUse" x="21" y="21" width="49" height="48">
<path d="M69.0144 40.76H46.2594V49.94H59.3574C58.1364 55.772 53.0304 59.12 46.2594 59.12C38.2674 59.12 31.8294 52.856 31.8294 45.08C31.8294 37.304 38.2674 31.04 46.2594 31.04C49.7004 31.04 52.8084 32.228 55.2504 34.172L62.3544 27.26C58.0254 23.588 52.4754 21.32 46.2594 21.32C32.7174 21.32 21.8394 31.904 21.8394 45.08C21.8394 58.256 32.7174 68.84 46.2594 68.84C58.4694 68.84 69.5694 60.2 69.5694 45.08C69.5694 43.676 69.3474 42.164 69.0144 40.76Z" fill="white"/>
</mask>
<g mask="url(#mask3_539_341)">
<path d="M72.8994 71L38.4894 45.08L34.0494 41.84L72.8994 31.04V71Z" fill="#4285F4"/>
</g>
<path d="M97.074 19.6464C96.7399 18.9437 96.2561 18.4023 95.6225 18.0221C94.9889 17.6304 94.2516 17.4346 93.4107 17.4346C92.5697 17.4346 91.8094 17.6304 91.1297 18.0221C90.4615 18.4023 89.9316 18.9552 89.5399 19.681C89.1598 20.3952 88.9697 21.2247 88.9697 22.1693C88.9697 23.1139 89.1598 23.9434 89.5399 24.6576C89.9316 25.3719 90.4615 25.9248 91.1297 26.3165C91.8094 26.6967 92.5697 26.8867 93.4107 26.8867C94.5857 26.8867 95.5534 26.5354 96.3137 25.8327C97.074 25.1299 97.5175 24.1795 97.6443 22.9815H92.8404V21.7027H99.3204V22.9123C99.2283 23.9031 98.9172 24.8131 98.3873 25.6426C97.8574 26.4605 97.1604 27.1114 96.2964 27.5952C95.4324 28.0675 94.4705 28.3037 93.4107 28.3037C92.2932 28.3037 91.2737 28.0445 90.3521 27.5261C89.4305 26.9962 88.699 26.2647 88.1575 25.3315C87.6276 24.3984 87.3627 23.3443 87.3627 22.1693C87.3627 20.9943 87.6276 19.9402 88.1575 19.0071C88.699 18.0624 89.4305 17.3309 90.3521 16.8125C91.2737 16.2826 92.2932 16.0176 93.4107 16.0176C94.6894 16.0176 95.8183 16.3344 96.7976 16.968C97.7883 17.6016 98.5083 18.4944 98.9576 19.6464H97.074ZM105.529 28.3555C104.642 28.3555 103.836 28.1539 103.11 27.7507C102.396 27.3475 101.832 26.7773 101.417 26.04C101.014 25.2912 100.812 24.4272 100.812 23.448C100.812 22.4803 101.019 21.6279 101.434 20.8906C101.86 20.1418 102.436 19.5715 103.162 19.1799C103.888 18.7767 104.7 18.5751 105.599 18.5751C106.497 18.5751 107.309 18.7767 108.035 19.1799C108.761 19.5715 109.331 20.136 109.746 20.8733C110.172 21.6106 110.385 22.4688 110.385 23.448C110.385 24.4272 110.166 25.2912 109.729 26.04C109.302 26.7773 108.721 27.3475 107.983 27.7507C107.246 28.1539 106.428 28.3555 105.529 28.3555ZM105.529 26.9731C106.094 26.9731 106.624 26.8407 107.119 26.5757C107.615 26.3107 108.012 25.9133 108.312 25.3834C108.623 24.8535 108.778 24.2083 108.778 23.448C108.778 22.6877 108.628 22.0426 108.329 21.5127C108.029 20.9827 107.638 20.5911 107.154 20.3376C106.67 20.0727 106.146 19.9402 105.581 19.9402C105.005 19.9402 104.475 20.0727 103.992 20.3376C103.519 20.5911 103.139 20.9827 102.851 21.5127C102.563 22.0426 102.419 22.6877 102.419 23.448C102.419 24.2199 102.557 24.8707 102.834 25.4007C103.122 25.9306 103.502 26.328 103.974 26.593C104.447 26.8464 104.965 26.9731 105.529 26.9731ZM116.583 28.3555C115.696 28.3555 114.889 28.1539 114.163 27.7507C113.449 27.3475 112.885 26.7773 112.47 26.04C112.067 25.2912 111.865 24.4272 111.865 23.448C111.865 22.4803 112.073 21.6279 112.487 20.8906C112.913 20.1418 113.489 19.5715 114.215 19.1799C114.941 18.7767 115.753 18.5751 116.652 18.5751C117.55 18.5751 118.362 18.7767 119.088 19.1799C119.814 19.5715 120.384 20.136 120.799 20.8733C121.225 21.6106 121.438 22.4688 121.438 23.448C121.438 24.4272 121.219 25.2912 120.782 26.04C120.355 26.7773 119.774 27.3475 119.036 27.7507C118.299 28.1539 117.481 28.3555 116.583 28.3555ZM116.583 26.9731C117.147 26.9731 117.677 26.8407 118.172 26.5757C118.668 26.3107 119.065 25.9133 119.365 25.3834C119.676 24.8535 119.831 24.2083 119.831 23.448C119.831 22.6877 119.681 22.0426 119.382 21.5127C119.082 20.9827 118.691 20.5911 118.207 20.3376C117.723 20.0727 117.199 19.9402 116.634 19.9402C116.058 19.9402 115.529 20.0727 115.045 20.3376C114.572 20.5911 114.192 20.9827 113.904 21.5127C113.616 22.0426 113.472 22.6877 113.472 23.448C113.472 24.2199 113.61 24.8707 113.887 25.4007C114.175 25.9306 114.555 26.328 115.027 26.593C115.5 26.8464 116.018 26.9731 116.583 26.9731ZM127.411 18.5751C128.229 18.5751 128.943 18.7536 129.554 19.1107C130.176 19.4679 130.637 19.9171 130.936 20.4586V18.7306H132.526V28.4074C132.526 29.2714 132.342 30.0375 131.973 30.7056C131.604 31.3853 131.074 31.9152 130.383 32.2954C129.704 32.6755 128.909 32.8656 127.999 32.8656C126.754 32.8656 125.718 32.5719 124.888 31.9843C124.059 31.3968 123.569 30.5962 123.419 29.5824H124.975C125.147 30.1584 125.505 30.6192 126.046 30.9648C126.587 31.3219 127.238 31.5005 127.999 31.5005C128.863 31.5005 129.565 31.2298 130.107 30.6883C130.66 30.1469 130.936 29.3866 130.936 28.4074V26.4202C130.625 26.9731 130.164 27.4339 129.554 27.8026C128.943 28.1712 128.229 28.3555 127.411 28.3555C126.57 28.3555 125.804 28.1482 125.113 27.7335C124.433 27.3187 123.897 26.737 123.506 25.9882C123.114 25.2394 122.918 24.3869 122.918 23.4307C122.918 22.4631 123.114 21.6163 123.506 20.8906C123.897 20.1533 124.433 19.5831 125.113 19.1799C125.804 18.7767 126.57 18.5751 127.411 18.5751ZM130.936 23.448C130.936 22.7338 130.792 22.1117 130.504 21.5818C130.216 21.0519 129.825 20.6487 129.329 20.3722C128.845 20.0842 128.31 19.9402 127.722 19.9402C127.135 19.9402 126.599 20.0784 126.115 20.3549C125.631 20.6314 125.245 21.0346 124.957 21.5645C124.669 22.0944 124.525 22.7165 124.525 23.4307C124.525 24.1565 124.669 24.7901 124.957 25.3315C125.245 25.8615 125.631 26.2704 126.115 26.5584C126.599 26.8349 127.135 26.9731 127.722 26.9731C128.31 26.9731 128.845 26.8349 129.329 26.5584C129.825 26.2704 130.216 25.8615 130.504 25.3315C130.792 24.7901 130.936 24.1623 130.936 23.448ZM136.756 15.4128V28.2H135.183V15.4128H136.756ZM148.076 23.1024C148.076 23.4019 148.059 23.7187 148.024 24.0528H140.455C140.513 24.9859 140.83 25.7175 141.406 26.2474C141.993 26.7658 142.702 27.025 143.531 27.025C144.211 27.025 144.775 26.8695 145.225 26.5584C145.685 26.2359 146.008 25.8096 146.192 25.2797H147.886C147.632 26.1898 147.125 26.9328 146.365 27.5088C145.605 28.0733 144.66 28.3555 143.531 28.3555C142.633 28.3555 141.826 28.1539 141.112 27.7507C140.409 27.3475 139.856 26.7773 139.453 26.04C139.05 25.2912 138.848 24.4272 138.848 23.448C138.848 22.4688 139.044 21.6106 139.436 20.8733C139.827 20.136 140.375 19.5715 141.077 19.1799C141.792 18.7767 142.61 18.5751 143.531 18.5751C144.43 18.5751 145.225 18.7709 145.916 19.1626C146.607 19.5543 147.137 20.0957 147.506 20.7869C147.886 21.4666 148.076 22.2384 148.076 23.1024ZM146.451 22.7741C146.451 22.1751 146.319 21.6624 146.054 21.2362C145.789 20.7984 145.426 20.4701 144.965 20.2512C144.516 20.0208 144.015 19.9056 143.462 19.9056C142.667 19.9056 141.987 20.1591 141.423 20.6659C140.87 21.1728 140.553 21.8755 140.473 22.7741H146.451Z" fill="white"/>
<path d="M94.1508 40.9264H89.0964V44.2096C89.3172 43.9024 89.6436 43.6528 90.0756 43.4608C90.5076 43.2592 90.9732 43.1584 91.4724 43.1584C92.2692 43.1584 92.9172 43.3264 93.4164 43.6624C93.9156 43.9888 94.2708 44.416 94.482 44.944C94.7028 45.4624 94.8132 46.0144 94.8132 46.6C94.8132 47.2912 94.6836 47.9104 94.4244 48.4576C94.1652 49.0048 93.7668 49.4368 93.2292 49.7536C92.7012 50.0704 92.0436 50.2288 91.2564 50.2288C90.2484 50.2288 89.4324 49.9696 88.8084 49.4512C88.1844 48.9328 87.8052 48.2416 87.6708 47.3776H88.9524C89.0772 47.9248 89.3412 48.352 89.7444 48.6592C90.1476 48.9664 90.6564 49.12 91.2708 49.12C92.0292 49.12 92.6004 48.8944 92.9844 48.4432C93.3684 47.9824 93.5604 47.3776 93.5604 46.6288C93.5604 45.88 93.3684 45.304 92.9844 44.9008C92.6004 44.488 92.034 44.2816 91.2852 44.2816C90.7764 44.2816 90.33 44.4064 89.946 44.656C89.5716 44.896 89.298 45.2272 89.1252 45.6496H87.8868V39.7744H94.1508V40.9264ZM97.1882 50.2864C96.9386 50.2864 96.7274 50.2 96.5546 50.0272C96.3818 49.8544 96.2954 49.6432 96.2954 49.3936C96.2954 49.144 96.3818 48.9328 96.5546 48.76C96.7274 48.5872 96.9386 48.5008 97.1882 48.5008C97.4282 48.5008 97.6298 48.5872 97.793 48.76C97.9658 48.9328 98.0522 49.144 98.0522 49.3936C98.0522 49.6432 97.9658 49.8544 97.793 50.0272C97.6298 50.2 97.4282 50.2864 97.1882 50.2864ZM99.5781 44.8864C99.5781 43.2352 99.8469 41.9488 100.384 41.0272C100.922 40.096 101.863 39.6304 103.207 39.6304C104.541 39.6304 105.477 40.096 106.015 41.0272C106.552 41.9488 106.821 43.2352 106.821 44.8864C106.821 46.5664 106.552 47.872 106.015 48.8032C105.477 49.7344 104.541 50.2 103.207 50.2C101.863 50.2 100.922 49.7344 100.384 48.8032C99.8469 47.872 99.5781 46.5664 99.5781 44.8864ZM105.525 44.8864C105.525 44.0512 105.468 43.3456 105.352 42.7696C105.247 42.184 105.021 41.7136 104.676 41.3584C104.34 41.0032 103.85 40.8256 103.207 40.8256C102.554 40.8256 102.055 41.0032 101.709 41.3584C101.373 41.7136 101.148 42.184 101.032 42.7696C100.927 43.3456 100.874 44.0512 100.874 44.8864C100.874 45.7504 100.927 46.4752 101.032 47.0608C101.148 47.6464 101.373 48.1168 101.709 48.472C102.055 48.8272 102.554 49.0048 103.207 49.0048C103.85 49.0048 104.34 48.8272 104.676 48.472C105.021 48.1168 105.247 47.6464 105.352 47.0608C105.468 46.4752 105.525 45.7504 105.525 44.8864Z" fill="white"/>
<path d="M117.91 35.64L119.869 41.4111L126.209 41.4111L121.08 44.9778L123.039 50.7489L117.91 47.1822L112.782 50.7489L114.741 44.9778L109.612 41.4111L115.951 41.4111L117.91 35.64Z" fill="#F8D20C"/>
<path d="M135.361 35.64L137.32 41.4111L143.659 41.4111L138.531 44.9778L140.489 50.7489L135.361 47.1822L130.232 50.7489L132.191 44.9778L127.063 41.4111L133.402 41.4111L135.361 35.64Z" fill="#F8D20C"/>
<path d="M152.811 35.64L154.77 41.4111L161.11 41.4111L155.981 44.9778L157.94 50.7489L152.811 47.1822L147.683 50.7489L149.642 44.9778L144.513 41.4111L150.852 41.4111L152.811 35.64Z" fill="#F8D20C"/>
<path d="M170.262 35.64L172.221 41.4111L178.56 41.4111L173.432 44.9778L175.391 50.7489L170.262 47.1822L165.133 50.7489L167.092 44.9778L161.964 41.4111L168.303 41.4111L170.262 35.64Z" fill="#F8D20C"/>
<path d="M187.713 35.64L189.672 41.4111L196.011 41.4111L190.882 44.9778L192.841 50.7489L187.713 47.1822L182.584 50.7489L184.543 44.9778L179.414 41.4111L185.754 41.4111L187.713 35.64Z" fill="#F8D20C"/>
<path d="M92.754 67.0304C93.1188 67.088 93.45 67.2368 93.7476 67.4768C94.0548 67.7168 94.2948 68.0144 94.4676 68.3696C94.65 68.7248 94.7412 69.104 94.7412 69.5072C94.7412 70.016 94.6116 70.4768 94.3524 70.8896C94.0932 71.2928 93.714 71.6144 93.2148 71.8544C92.7252 72.0848 92.1444 72.2 91.4724 72.2H87.7284V62.1632H91.3284C92.01 62.1632 92.5908 62.2784 93.0708 62.5088C93.5508 62.7296 93.9108 63.032 94.1508 63.416C94.3908 63.8 94.5108 64.232 94.5108 64.712C94.5108 65.3072 94.3476 65.8016 94.0212 66.1952C93.7044 66.5792 93.282 66.8576 92.754 67.0304ZM89.0388 66.4976H91.242C91.8564 66.4976 92.3316 66.3536 92.6676 66.0656C93.0036 65.7776 93.1716 65.3792 93.1716 64.8704C93.1716 64.3616 93.0036 63.9632 92.6676 63.6752C92.3316 63.3872 91.8468 63.2432 91.2132 63.2432H89.0388V66.4976ZM91.3572 71.12C92.01 71.12 92.5188 70.9664 92.8836 70.6592C93.2484 70.352 93.4308 69.9248 93.4308 69.3776C93.4308 68.8208 93.2388 68.384 92.8548 68.0672C92.4708 67.7408 91.9572 67.5776 91.314 67.5776H89.0388V71.12H91.3572ZM96.0701 68.2256C96.0701 67.4192 96.2333 66.7136 96.5597 66.1088C96.8861 65.4944 97.3325 65.0192 97.8989 64.6832C98.4749 64.3472 99.1133 64.1792 99.8141 64.1792C100.505 64.1792 101.105 64.328 101.614 64.6256C102.123 64.9232 102.502 65.2976 102.752 65.7488V64.3088H104.076V72.2H102.752V70.7312C102.492 71.192 102.104 71.576 101.585 71.8832C101.076 72.1808 100.481 72.3296 99.7997 72.3296C99.0989 72.3296 98.4653 72.1568 97.8989 71.8112C97.3325 71.4656 96.8861 70.9808 96.5597 70.3568C96.2333 69.7328 96.0701 69.0224 96.0701 68.2256ZM102.752 68.24C102.752 67.6448 102.632 67.1264 102.392 66.6848C102.152 66.2432 101.825 65.9072 101.412 65.6768C101.009 65.4368 100.563 65.3168 100.073 65.3168C99.5837 65.3168 99.1373 65.432 98.7341 65.6624C98.3309 65.8928 98.0093 66.2288 97.7693 66.6704C97.5293 67.112 97.4093 67.6304 97.4093 68.2256C97.4093 68.8304 97.5293 69.3584 97.7693 69.8096C98.0093 70.2512 98.3309 70.592 98.7341 70.832C99.1373 71.0624 99.5837 71.1776 100.073 71.1776C100.563 71.1776 101.009 71.0624 101.412 70.832C101.825 70.592 102.152 70.2512 102.392 69.8096C102.632 69.3584 102.752 68.8352 102.752 68.24ZM109.085 72.3296C108.48 72.3296 107.937 72.2288 107.457 72.0272C106.977 71.816 106.598 71.528 106.32 71.1632C106.041 70.7888 105.888 70.3616 105.859 69.8816H107.213C107.251 70.2752 107.433 70.5968 107.76 70.8464C108.096 71.096 108.533 71.2208 109.07 71.2208C109.569 71.2208 109.963 71.1104 110.251 70.8896C110.539 70.6688 110.683 70.3904 110.683 70.0544C110.683 69.7088 110.529 69.4544 110.222 69.2912C109.915 69.1184 109.44 68.9504 108.797 68.7872C108.211 68.6336 107.731 68.48 107.357 68.3264C106.992 68.1632 106.675 67.928 106.406 67.6208C106.147 67.304 106.017 66.8912 106.017 66.3824C106.017 65.9792 106.137 65.6096 106.377 65.2736C106.617 64.9376 106.958 64.6736 107.4 64.4816C107.841 64.28 108.345 64.1792 108.912 64.1792C109.785 64.1792 110.491 64.4 111.029 64.8416C111.566 65.2832 111.854 65.888 111.893 66.656H110.582C110.553 66.2432 110.385 65.912 110.078 65.6624C109.781 65.4128 109.377 65.288 108.869 65.288C108.398 65.288 108.024 65.3888 107.745 65.5904C107.467 65.792 107.328 66.056 107.328 66.3824C107.328 66.6416 107.409 66.8576 107.573 67.0304C107.745 67.1936 107.957 67.328 108.206 67.4336C108.465 67.5296 108.821 67.64 109.272 67.7648C109.838 67.9184 110.299 68.072 110.654 68.2256C111.009 68.3696 111.312 68.5904 111.561 68.888C111.821 69.1856 111.955 69.5744 111.965 70.0544C111.965 70.4864 111.845 70.8752 111.605 71.2208C111.365 71.5664 111.024 71.84 110.582 72.0416C110.15 72.2336 109.651 72.3296 109.085 72.3296ZM121.014 67.952C121.014 68.2016 121 68.4656 120.971 68.744H114.664C114.712 69.5216 114.976 70.1312 115.456 70.5728C115.946 71.0048 116.536 71.2208 117.227 71.2208C117.794 71.2208 118.264 71.0912 118.638 70.832C119.022 70.5632 119.291 70.208 119.445 69.7664H120.856C120.645 70.5248 120.222 71.144 119.589 71.624C118.955 72.0944 118.168 72.3296 117.227 72.3296C116.478 72.3296 115.806 72.1616 115.211 71.8256C114.626 71.4896 114.165 71.0144 113.829 70.4C113.493 69.776 113.325 69.056 113.325 68.24C113.325 67.424 113.488 66.7088 113.814 66.0944C114.141 65.48 114.597 65.0096 115.182 64.6832C115.778 64.3472 116.459 64.1792 117.227 64.1792C117.976 64.1792 118.638 64.3424 119.214 64.6688C119.79 64.9952 120.232 65.4464 120.539 66.0224C120.856 66.5888 121.014 67.232 121.014 67.952ZM119.661 67.6784C119.661 67.1792 119.55 66.752 119.33 66.3968C119.109 66.032 118.806 65.7584 118.422 65.576C118.048 65.384 117.63 65.288 117.17 65.288C116.507 65.288 115.941 65.4992 115.47 65.9216C115.01 66.344 114.746 66.9296 114.678 67.6784H119.661ZM122.254 68.2256C122.254 67.4192 122.418 66.7136 122.744 66.1088C123.07 65.4944 123.517 65.0192 124.083 64.6832C124.659 64.3472 125.302 64.1792 126.013 64.1792C126.627 64.1792 127.198 64.3232 127.726 64.6112C128.254 64.8896 128.658 65.2592 128.936 65.72V61.544H130.261V72.2H128.936V70.7168C128.677 71.1872 128.293 71.576 127.784 71.8832C127.275 72.1808 126.68 72.3296 125.998 72.3296C125.298 72.3296 124.659 72.1568 124.083 71.8112C123.517 71.4656 123.07 70.9808 122.744 70.3568C122.418 69.7328 122.254 69.0224 122.254 68.2256ZM128.936 68.24C128.936 67.6448 128.816 67.1264 128.576 66.6848C128.336 66.2432 128.01 65.9072 127.597 65.6768C127.194 65.4368 126.747 65.3168 126.258 65.3168C125.768 65.3168 125.322 65.432 124.918 65.6624C124.515 65.8928 124.194 66.2288 123.954 66.6704C123.714 67.112 123.594 67.6304 123.594 68.2256C123.594 68.8304 123.714 69.3584 123.954 69.8096C124.194 70.2512 124.515 70.592 124.918 70.832C125.322 71.0624 125.768 71.1776 126.258 71.1776C126.747 71.1776 127.194 71.0624 127.597 70.832C128.01 70.592 128.336 70.2512 128.576 69.8096C128.816 69.3584 128.936 68.8352 128.936 68.24ZM139.756 72.3296C139.017 72.3296 138.345 72.1616 137.74 71.8256C137.145 71.4896 136.674 71.0144 136.329 70.4C135.993 69.776 135.825 69.056 135.825 68.24C135.825 67.4336 135.998 66.7232 136.343 66.1088C136.698 65.4848 137.178 65.0096 137.783 64.6832C138.388 64.3472 139.065 64.1792 139.814 64.1792C140.562 64.1792 141.239 64.3472 141.844 64.6832C142.449 65.0096 142.924 65.48 143.27 66.0944C143.625 66.7088 143.802 67.424 143.802 68.24C143.802 69.056 143.62 69.776 143.255 70.4C142.9 71.0144 142.415 71.4896 141.801 71.8256C141.186 72.1616 140.505 72.3296 139.756 72.3296ZM139.756 71.1776C140.226 71.1776 140.668 71.0672 141.081 70.8464C141.494 70.6256 141.825 70.2944 142.074 69.8528C142.334 69.4112 142.463 68.8736 142.463 68.24C142.463 67.6064 142.338 67.0688 142.089 66.6272C141.839 66.1856 141.513 65.8592 141.11 65.648C140.706 65.4272 140.27 65.3168 139.799 65.3168C139.319 65.3168 138.878 65.4272 138.474 65.648C138.081 65.8592 137.764 66.1856 137.524 66.6272C137.284 67.0688 137.164 67.6064 137.164 68.24C137.164 68.8832 137.279 69.4256 137.51 69.8672C137.75 70.3088 138.066 70.64 138.46 70.8608C138.854 71.072 139.286 71.1776 139.756 71.1776ZM149.37 64.1648C150.33 64.1648 151.108 64.4576 151.703 65.0432C152.298 65.6192 152.596 66.4544 152.596 67.5488V72.2H151.3V67.736C151.3 66.9488 151.103 66.3488 150.709 65.936C150.316 65.5136 149.778 65.3024 149.097 65.3024C148.405 65.3024 147.853 65.5184 147.441 65.9504C147.037 66.3824 146.836 67.0112 146.836 67.8368V72.2H145.525V64.3088H146.836V65.432C147.095 65.0288 147.445 64.7168 147.887 64.496C148.338 64.2752 148.833 64.1648 149.37 64.1648ZM158.014 62.984V61.7888H160.721V72.2H159.396V62.984H158.014ZM163.605 72.2864C163.356 72.2864 163.145 72.2 162.972 72.0272C162.799 71.8544 162.713 71.6432 162.713 71.3936C162.713 71.144 162.799 70.9328 162.972 70.76C163.145 70.5872 163.356 70.5008 163.605 70.5008C163.845 70.5008 164.047 70.5872 164.21 70.76C164.383 70.9328 164.469 71.144 164.469 71.3936C164.469 71.6432 164.383 71.8544 164.21 72.0272C164.047 72.2 163.845 72.2864 163.605 72.2864ZM172.634 62.9264H167.579V66.2096C167.8 65.9024 168.126 65.6528 168.558 65.4608C168.99 65.2592 169.456 65.1584 169.955 65.1584C170.752 65.1584 171.4 65.3264 171.899 65.6624C172.398 65.9888 172.754 66.416 172.965 66.944C173.186 67.4624 173.296 68.0144 173.296 68.6C173.296 69.2912 173.166 69.9104 172.907 70.4576C172.648 71.0048 172.25 71.4368 171.712 71.7536C171.184 72.0704 170.526 72.2288 169.739 72.2288C168.731 72.2288 167.915 71.9696 167.291 71.4512C166.667 70.9328 166.288 70.2416 166.154 69.3776H167.435C167.56 69.9248 167.824 70.352 168.227 70.6592C168.63 70.9664 169.139 71.12 169.754 71.12C170.512 71.12 171.083 70.8944 171.467 70.4432C171.851 69.9824 172.043 69.3776 172.043 68.6288C172.043 67.88 171.851 67.304 171.467 66.9008C171.083 66.488 170.517 66.2816 169.768 66.2816C169.259 66.2816 168.813 66.4064 168.429 66.656C168.054 66.896 167.781 67.2272 167.608 67.6496H166.37V61.7744H172.634V62.9264ZM179.66 72.2L176.564 68.7152V72.2H175.253V61.544H176.564V67.808L179.602 64.3088H181.431L177.716 68.24L181.445 72.2H179.66ZM190.152 67.4912H187.085V70.6016H185.861V67.4912H182.808V66.3824H185.861V63.2576H187.085V66.3824H190.152V67.4912ZM201.618 72.2L199.228 68.096H197.644V72.2H196.333V62.1632H199.573C200.332 62.1632 200.97 62.2928 201.488 62.552C202.016 62.8112 202.41 63.1616 202.669 63.6032C202.928 64.0448 203.058 64.5488 203.058 65.1152C203.058 65.8064 202.856 66.416 202.453 66.944C202.06 67.472 201.464 67.8224 200.668 67.9952L203.188 72.2H201.618ZM197.644 67.0448H199.573C200.284 67.0448 200.816 66.872 201.172 66.5264C201.527 66.1712 201.704 65.7008 201.704 65.1152C201.704 64.52 201.527 64.0592 201.172 63.7328C200.826 63.4064 200.293 63.2432 199.573 63.2432H197.644V67.0448ZM212.294 67.952C212.294 68.2016 212.28 68.4656 212.251 68.744H205.944C205.992 69.5216 206.256 70.1312 206.736 70.5728C207.225 71.0048 207.816 71.2208 208.507 71.2208C209.073 71.2208 209.544 71.0912 209.918 70.832C210.302 70.5632 210.571 70.208 210.724 69.7664H212.136C211.924 70.5248 211.502 71.144 210.868 71.624C210.235 72.0944 209.448 72.3296 208.507 72.3296C207.758 72.3296 207.086 72.1616 206.491 71.8256C205.905 71.4896 205.444 71.0144 205.108 70.4C204.772 69.776 204.604 69.056 204.604 68.24C204.604 67.424 204.768 66.7088 205.094 66.0944C205.42 65.48 205.876 65.0096 206.462 64.6832C207.057 64.3472 207.739 64.1792 208.507 64.1792C209.256 64.1792 209.918 64.3424 210.494 64.6688C211.07 64.9952 211.512 65.4464 211.819 66.0224C212.136 66.5888 212.294 67.232 212.294 67.952ZM210.94 67.6784C210.94 67.1792 210.83 66.752 210.609 66.3968C210.388 66.032 210.086 65.7584 209.702 65.576C209.328 65.384 208.91 65.288 208.449 65.288C207.787 65.288 207.22 65.4992 206.75 65.9216C206.289 66.344 206.025 66.9296 205.958 67.6784H210.94ZM216.961 70.9904L219.409 64.3088H220.806L217.71 72.2H216.184L213.088 64.3088H214.499L216.961 70.9904ZM222.772 63.0272C222.523 63.0272 222.312 62.9408 222.139 62.768C221.966 62.5952 221.88 62.384 221.88 62.1344C221.88 61.8848 221.966 61.6736 222.139 61.5008C222.312 61.328 222.523 61.2416 222.772 61.2416C223.012 61.2416 223.214 61.328 223.377 61.5008C223.55 61.6736 223.636 61.8848 223.636 62.1344C223.636 62.384 223.55 62.5952 223.377 62.768C223.214 62.9408 223.012 63.0272 222.772 63.0272ZM223.406 64.3088V72.2H222.096V64.3088H223.406ZM232.839 67.952C232.839 68.2016 232.825 68.4656 232.796 68.744H226.489C226.537 69.5216 226.801 70.1312 227.281 70.5728C227.771 71.0048 228.361 71.2208 229.052 71.2208C229.619 71.2208 230.089 71.0912 230.463 70.832C230.847 70.5632 231.116 70.208 231.27 69.7664H232.681C232.47 70.5248 232.047 71.144 231.414 71.624C230.78 72.0944 229.993 72.3296 229.052 72.3296C228.303 72.3296 227.631 72.1616 227.036 71.8256C226.451 71.4896 225.99 71.0144 225.654 70.4C225.318 69.776 225.15 69.056 225.15 68.24C225.15 67.424 225.313 66.7088 225.639 66.0944C225.966 65.48 226.422 65.0096 227.007 64.6832C227.603 64.3472 228.284 64.1792 229.052 64.1792C229.801 64.1792 230.463 64.3424 231.039 64.6688C231.615 64.9952 232.057 65.4464 232.364 66.0224C232.681 66.5888 232.839 67.232 232.839 67.952ZM231.486 67.6784C231.486 67.1792 231.375 66.752 231.155 66.3968C230.934 66.032 230.631 65.7584 230.247 65.576C229.873 65.384 229.455 65.288 228.995 65.288C228.332 65.288 227.766 65.4992 227.295 65.9216C226.835 66.344 226.571 66.9296 226.503 67.6784H231.486ZM245.081 64.3088L242.619 72.2H241.265L239.364 65.936L237.463 72.2H236.11L233.633 64.3088H234.972L236.787 70.9328L238.745 64.3088H240.084L241.999 70.9472L243.785 64.3088H245.081ZM249.175 72.3296C248.57 72.3296 248.028 72.2288 247.548 72.0272C247.068 71.816 246.689 71.528 246.41 71.1632C246.132 70.7888 245.978 70.3616 245.95 69.8816H247.303C247.342 70.2752 247.524 70.5968 247.85 70.8464C248.186 71.096 248.623 71.2208 249.161 71.2208C249.66 71.2208 250.054 71.1104 250.342 70.8896C250.63 70.6688 250.774 70.3904 250.774 70.0544C250.774 69.7088 250.62 69.4544 250.313 69.2912C250.006 69.1184 249.53 68.9504 248.887 68.7872C248.302 68.6336 247.822 68.48 247.447 68.3264C247.082 68.1632 246.766 67.928 246.497 67.6208C246.238 67.304 246.108 66.8912 246.108 66.3824C246.108 65.9792 246.228 65.6096 246.468 65.2736C246.708 64.9376 247.049 64.6736 247.49 64.4816C247.932 64.28 248.436 64.1792 249.002 64.1792C249.876 64.1792 250.582 64.4 251.119 64.8416C251.657 65.2832 251.945 65.888 251.983 66.656H250.673C250.644 66.2432 250.476 65.912 250.169 65.6624C249.871 65.4128 249.468 65.288 248.959 65.288C248.489 65.288 248.114 65.3888 247.836 65.5904C247.558 65.792 247.418 66.056 247.418 66.3824C247.418 66.6416 247.5 66.8576 247.663 67.0304C247.836 67.1936 248.047 67.328 248.297 67.4336C248.556 67.5296 248.911 67.64 249.362 67.7648C249.929 67.9184 250.39 68.072 250.745 68.2256C251.1 68.3696 251.402 68.5904 251.652 68.888C251.911 69.1856 252.046 69.5744 252.055 70.0544C252.055 70.4864 251.935 70.8752 251.695 71.2208C251.455 71.5664 251.114 71.84 250.673 72.0416C250.241 72.2336 249.742 72.3296 249.175 72.3296Z" fill="white"/>
</svg>
